<svg xmlns="http://www.w3.org/2000/svg" xmlns:xlink="http://www.w3.org/1999/xlink" version="1.1" viewBox="0 0 64 64">
  <g id="achievement-gradient" class="svg-hide">
    <path d="M31.704,52.448c-0.59,0-1.171-0.199-1.638-0.56l-12.711-9.838     c-0.65-0.503-1.038-1.294-1.038-2.116V17.452c0-1.476,1.197-2.677,2.668-2.677c0.256,0,0.513,0.038,0.764,0.112     c3.923,1.157,9.182,2.536,11.955,2.536c2.775,0,8.033-1.379,11.955-2.536c0.251-0.074,0.508-0.112,0.764-0.112     c1.472,0,2.669,1.201,2.669,2.677v22.483c0,0.834-0.378,1.605-1.037,2.116l-12.713,9.838     C32.875,52.249,32.293,52.448,31.704,52.448z M21.094,17.666c-1.354,0-2.457,1.105-2.457,2.464v18.758     c0,0.756,0.357,1.483,0.956,1.946l10.605,8.207c0.429,0.332,0.964,0.515,1.506,0.515c0.543,0,1.078-0.183,1.506-0.516     l10.605-8.207c0.607-0.47,0.956-1.179,0.956-1.946V20.13c0-1.358-1.102-2.464-2.456-2.464c-0.236,0-0.473,0.035-0.702,0.102     c-3.259,0.961-7.622,2.107-9.909,2.107c-2.285,0-6.65-1.146-9.909-2.107C21.565,17.701,21.33,17.666,21.094,17.666z" fill="#D9D9D9"/>
    <path d="M44.423,14.899c1.403,0,2.544,1.145,2.544,2.552v22.483c0,0.795-0.361,1.53-0.989,2.017     L33.265,51.79c-0.444,0.344-0.999,0.533-1.561,0.533c-0.562,0-1.117-0.189-1.561-0.533l-12.712-9.838     c-0.619-0.479-0.989-1.233-0.989-2.017V17.452c0-0.692,0.27-1.338,0.762-1.82c0.482-0.472,1.115-0.733,1.782-0.733     c0.244,0,0.489,0.036,0.728,0.106c3.931,1.159,9.202,2.541,11.991,2.541c2.791,0,8.061-1.382,11.991-2.541     C43.934,14.935,44.179,14.899,44.423,14.899 M31.704,19.751c-2.389,0-7.212-1.317-9.874-2.102     c-0.241-0.071-0.489-0.107-0.737-0.107c-1.423,0-2.581,1.161-2.581,2.588v18.758c0,0.794,0.375,1.558,1.004,2.045l10.605,8.207     c0.45,0.349,1.012,0.541,1.582,0.541c0.571,0,1.133-0.193,1.583-0.542l10.605-8.207c0.638-0.493,1.004-1.239,1.004-2.045V20.13     c0-1.427-1.158-2.588-2.581-2.588c-0.248,0-0.496,0.036-0.737,0.107C38.916,18.434,34.094,19.751,31.704,19.751 M44.423,14.649     c-0.262,0-0.531,0.037-0.799,0.117c-3.632,1.072-9.101,2.531-11.92,2.531s-8.287-1.459-11.92-2.531     c-0.268-0.079-0.537-0.117-0.799-0.117c-1.494,0-2.794,1.21-2.794,2.802v22.483c0,0.866,0.401,1.685,1.086,2.215l12.712,9.838     c0.505,0.39,1.109,0.586,1.714,0.586s1.209-0.195,1.714-0.586l12.713-9.838c0.686-0.531,1.086-1.348,1.086-2.215V17.452     C47.217,15.859,45.917,14.649,44.423,14.649L44.423,14.649z M31.704,20.001c2.351,0,6.913-1.218,9.945-2.112     c0.224-0.066,0.448-0.097,0.666-0.097c1.246,0,2.331,1.009,2.331,2.338v18.757c0,0.723-0.334,1.405-0.907,1.847l-10.605,8.207     c-0.421,0.327-0.926,0.49-1.43,0.49c-0.504,0-1.009-0.163-1.429-0.489l-10.605-8.207c-0.571-0.443-0.907-1.125-0.907-1.847V20.13     c0-1.329,1.085-2.338,2.331-2.338c0.219,0,0.442,0.031,0.666,0.097C24.791,18.782,29.353,20.001,31.704,20.001L31.704,20.001z" fill="#B8B8B8"/>
    <path d="M28.508,58.373c-3.463-0.297-6.798-1.729-9.396-4.033l-0.088-0.078l-0.083,0.084     c-0.903,0.911-2.208,1.434-3.58,1.434c-0.884,0-1.727-0.219-2.446-0.634c0.524-1.69,1.392-3.305,2.512-4.673l0.18-0.219     l-5.337,0.287l-0.138,0.004c-0.262,0-0.418-0.055-0.494-0.173c-0.149-0.233,0.12-0.568,0.294-0.748l2.688-2.78l-0.058-0.084     c-0.501-0.73-1.385-0.824-2.099-0.824c-0.294,0-0.597,0.018-0.895,0.034c-0.246,0.015-0.489,0.028-0.722,0.032     c-0.001,0-0.002,0-0.002,0c-1.07,0-1.975-0.297-2.619-0.837c-0.701-0.587-1.074-1.499-0.958-2.312     c0.375,0.143,0.777,0.214,1.197,0.214c0.859,0,1.704-0.313,2.316-0.861l0.213-0.189l-0.284-0.027     c-0.691-0.067-1.138-0.646-1.611-1.258c-0.208-0.269-0.416-0.537-0.646-0.765c-0.613-0.606-1.422-0.933-2.204-1.248     c-0.392-0.158-0.784-0.316-1.154-0.51c-1.089-0.57-1.962-1.74-1.609-2.754c0.825,0.225,1.682,0.338,2.547,0.338     c0.813,0,1.622-0.101,2.402-0.3L6.6,35.45l-0.092-0.145c-0.678-1.072-1.741-1.807-2.769-2.517     c-0.387-0.268-0.774-0.535-1.141-0.82c-1.243-0.966-2.417-2.526-2.083-4.063l3.619,2.085c0.114,0.065,0.237,0.13,0.375,0.13     c0.299-0.04,0.465-0.264,0.52-0.618c0.297-1.939-1.019-3.65-2.392-5.237c-1.313-1.514-2.482-3.15-2.225-4.88     c0.677,0.457,1.438,0.938,2.307,1.045c0.095,0.012,0.192,0.018,0.29,0.018c0.79,0,1.754-0.408,2.005-1.303     c0.298-1.063-0.516-1.893-1.303-2.694c-0.301-0.306-0.612-0.623-0.851-0.944c-1.039-1.397-0.805-3.315-0.573-4.334     c0.333-1.466,0.978-2.865,1.873-4.072c-0.149,1.956,0.568,3.99,1.926,5.402L6.35,12.78l-0.051-0.379     c-0.344-2.533,1.09-5.25,3.357-6.426l-0.799,4.348l0.321-0.436c1.186-1.609,2.699-3.009,4.394-4.069l-2.908,6.27l0.359-0.228     c2.333-1.476,4.762-2.853,7.227-4.097c-1.006,3.206-3.373,5.994-6.377,7.496l-0.182,0.09c-1.184,0.588-2.525,1.255-2.632,2.567     l-0.018,0.223l0.199-0.102c1.552-0.79,3.205-1.363,4.915-1.703c-0.245,0.861-0.937,1.526-1.745,2.238l-4.709,4.149l0.206,0.069     c0.785,0.261,1.604,0.394,2.434,0.394c0.048,0,0.096,0,0.143-0.001c-1.258,1.339-2.166,2.977-2.633,4.756l-0.023,0.088     l0.077,0.049c0.186,0.118,0.39,0.178,0.606,0.178c0.518,0,1.05-0.338,1.565-0.665c0.498-0.316,1.011-0.642,1.48-0.642     c0.155,0,0.297,0.034,0.434,0.105c0.229,0.119,0.381,0.306,0.452,0.558c0.179,0.634-0.175,1.55-0.533,2.143l-2.533,4.193     l0.263-0.038c0.513-0.076,0.94-0.135,1.376-0.135c0.385,0,0.718,0.048,1.019,0.147c0.71,0.232,1.377,0.933,1.266,1.699     c-0.079,0.544-0.511,0.966-0.929,1.373c-0.097,0.095-0.194,0.188-0.286,0.284c-0.573,0.594-0.947,1.473-0.49,2.098l0.084,0.115     l0.103-0.1c0.097-0.093,0.214-0.14,0.35-0.14c0.398,0,0.846,0.405,0.921,0.833c0.081,0.46-0.054,0.915-0.197,1.397     c-0.054,0.182-0.108,0.364-0.15,0.547c-0.17,0.74-0.042,1.627,0.629,1.941c0.184,0.086,0.38,0.113,0.569,0.139l0.147,0.021     c1.129,0.186,2.11,1.046,2.442,2.141c0.057,0.187,0.098,0.383,0.14,0.579c0.115,0.542,0.234,1.103,0.663,1.476     c0.323,0.283,0.751,0.385,1.198,0.473l0.224,0.043c0.826,0.157,1.68,0.32,2.433,0.695c0.904,0.448,1.529,1.188,1.67,1.977     c0.027,0.15,0.038,0.303,0.048,0.456c0.016,0.218,0.032,0.436,0.088,0.646c0.163,0.612,0.669,1.161,1.426,1.547     c0.793,0.404,1.696,0.601,2.761,0.601c1.21,0,2.465-0.257,3.652-0.526c0.137,0.257,0.133,0.29,0.085,0.648     C30.448,56.237,29.604,57.474,28.508,58.373z" fill="#D9D9D9"/>
    <path d="M13.277,6.156l-2.548,5.492l-0.358,0.771l0.718-0.454c2.247-1.422,4.581-2.75,6.947-3.954     c-1.044,3.053-3.334,5.693-6.22,7.136l-0.181,0.09c-1.153,0.573-2.588,1.286-2.702,2.669l-0.037,0.446l0.399-0.203     c1.478-0.752,3.048-1.306,4.671-1.648c-0.282,0.735-0.913,1.337-1.64,1.978l-0.48,0.423l-4.066,3.583l-0.326,0.287l0.412,0.137     c0.753,0.251,1.537,0.385,2.332,0.399c-1.172,1.314-2.022,2.892-2.47,4.599l-0.046,0.177l0.154,0.098     c0.206,0.131,0.433,0.197,0.673,0.197c0.554,0,1.103-0.348,1.633-0.685c0.482-0.306,0.981-0.623,1.413-0.623     c0.135,0,0.258,0.03,0.377,0.091c0.2,0.103,0.327,0.26,0.389,0.48c0.168,0.596-0.175,1.473-0.52,2.044l-1.208,2l-1.188,1.967     l-0.274,0.454l0.525-0.078c0.42-0.062,0.897-0.133,1.357-0.133c0.371,0,0.692,0.046,0.98,0.141     c0.661,0.217,1.283,0.861,1.181,1.562c-0.073,0.503-0.471,0.891-0.892,1.302c-0.098,0.096-0.196,0.191-0.289,0.288     c-0.61,0.631-1.001,1.574-0.501,2.257l0.169,0.231l0.206-0.198c0.073-0.07,0.159-0.105,0.263-0.105     c0.338,0,0.733,0.361,0.798,0.73c0.076,0.431-0.055,0.873-0.194,1.34c-0.055,0.185-0.109,0.37-0.152,0.555     c-0.182,0.789-0.036,1.739,0.698,2.082c0.2,0.093,0.404,0.122,0.602,0.149l0.147,0.022c1.083,0.177,2.024,1.002,2.343,2.053     c0.055,0.183,0.096,0.375,0.137,0.568c0.119,0.562,0.243,1.143,0.703,1.544c0.349,0.305,0.794,0.411,1.257,0.501l0.235,0.045     c0.814,0.156,1.657,0.317,2.39,0.682c0.869,0.432,1.468,1.137,1.602,1.887c0.026,0.146,0.036,0.295,0.047,0.444     c0.016,0.218,0.032,0.443,0.092,0.669c0.173,0.647,0.702,1.225,1.49,1.627c0.811,0.413,1.732,0.614,2.817,0.614     c1.19,0,2.419-0.245,3.586-0.508c0.073,0.152,0.066,0.211,0.035,0.468c-0.424,1.313-1.238,2.515-2.298,3.397     c-3.417-0.304-6.706-1.721-9.272-3.997l-0.177-0.157l-0.167,0.168c-0.88,0.887-2.153,1.396-3.491,1.396     c-0.826,0-1.616-0.196-2.297-0.568c0.522-1.641,1.37-3.204,2.459-4.534l0.359-0.438l-0.566,0.03l-2.539,0.137l-2.515,0.135     c-0.043,0.002-0.087,0.004-0.132,0.004c-0.211,0-0.338-0.038-0.388-0.115c-0.11-0.172,0.185-0.498,0.279-0.595l1.309-1.353     l1.309-1.353l0.142-0.147l-0.116-0.168c-0.534-0.778-1.458-0.878-2.202-0.878c-0.296,0-0.6,0.017-0.899,0.035     c-0.245,0.014-0.487,0.028-0.719,0.031l-0.07,0.001c-0.971,0-1.848-0.287-2.47-0.808c-0.625-0.523-0.977-1.314-0.931-2.045     c0.346,0.112,0.711,0.169,1.089,0.169c0.89,0,1.764-0.326,2.4-0.893l0.426-0.381L8.72,41.864     c-0.637-0.061-1.068-0.619-1.524-1.209c-0.206-0.266-0.419-0.542-0.658-0.778c-0.631-0.624-1.451-0.955-2.244-1.275     c-0.384-0.155-0.781-0.315-1.144-0.505c-1.001-0.524-1.815-1.566-1.582-2.49c0.8,0.206,1.627,0.311,2.462,0.311     c0.824,0,1.642-0.102,2.433-0.303l0.334-0.085l-0.184-0.291c-0.692-1.094-1.766-1.836-2.804-2.553     c-0.379-0.262-0.772-0.533-1.135-0.816c-1.166-0.906-2.272-2.341-2.069-3.767l3.465,1.997c0.095,0.055,0.255,0.147,0.438,0.147     l0.063-0.003L4.59,30.24c0.293-0.044,0.498-0.306,0.561-0.718c0.306-1.992-1.029-3.729-2.422-5.337     c-1.241-1.432-2.354-2.973-2.219-4.581c0.645,0.428,1.366,0.85,2.19,0.952c0.101,0.013,0.203,0.019,0.306,0.019     c0.836,0,1.858-0.436,2.126-1.394c0.317-1.133-0.522-1.988-1.334-2.815c-0.298-0.303-0.606-0.617-0.84-0.932     c-1.009-1.357-0.779-3.234-0.552-4.232C2.705,9.888,3.256,8.63,4.014,7.519c-0.025,1.855,0.696,3.737,1.98,5.072l0.531,0.552     l-0.103-0.759C6.098,9.987,7.396,7.423,9.486,6.211L8.832,9.767l-0.196,1.066L9.279,9.96C10.37,8.479,11.741,7.177,13.277,6.156      M13.858,5.497c-1.862,1.097-3.498,2.575-4.78,4.315C9.326,8.46,9.575,7.106,9.824,5.753c-2.46,1.141-4.013,3.978-3.649,6.664     c-1.444-1.501-2.144-3.684-1.843-5.744c-1.051,1.3-1.798,2.843-2.168,4.472c-0.341,1.502-0.323,3.201,0.595,4.437     c0.86,1.157,2.523,2.142,2.134,3.53c-0.217,0.775-1.069,1.211-1.885,1.211c-0.092,0-0.184-0.006-0.275-0.017     c-0.89-0.11-1.669-0.629-2.411-1.133c-0.397,1.908,0.944,3.702,2.219,5.174c1.276,1.473,2.659,3.21,2.363,5.135     c-0.034,0.219-0.132,0.476-0.351,0.509c-0.015,0.002-0.03,0.003-0.045,0.003c-0.11,0-0.216-0.057-0.313-0.113     c-1.254-0.722-2.508-1.445-3.762-2.168c-0.469,1.645,0.737,3.303,2.088,4.353c1.351,1.049,2.967,1.859,3.881,3.305     c-0.774,0.197-1.573,0.296-2.371,0.296c-0.885,0-1.771-0.121-2.622-0.363c-0.502,1.154,0.511,2.431,1.626,3.014     c1.115,0.583,2.433,0.851,3.328,1.736c0.758,0.749,1.272,1.956,2.334,2.058c-0.606,0.542-1.421,0.83-2.233,0.83     c-0.443,0-0.886-0.086-1.293-0.263c-0.207,0.945,0.233,1.961,0.974,2.581c0.722,0.605,1.687,0.867,2.63,0.867     c0.025,0,0.049,0,0.074-0.001c0.514-0.008,1.077-0.066,1.614-0.066c0.808,0,1.559,0.132,1.996,0.769     c-0.872,0.902-1.745,1.805-2.617,2.707c-0.24,0.248-0.495,0.612-0.31,0.903c0.121,0.19,0.364,0.231,0.598,0.231     c0.049,0,0.098-0.002,0.146-0.004c1.685-0.09,3.369-0.182,5.054-0.272c-1.159,1.415-2.035,3.059-2.564,4.809     c0.779,0.472,1.686,0.701,2.595,0.701c1.354,0,2.713-0.507,3.669-1.47c2.626,2.33,6.02,3.779,9.518,4.068     c1.141-0.922,2.005-2.182,2.456-3.578c0.057-0.429,0.064-0.451-0.141-0.831c-1.209,0.276-2.485,0.544-3.718,0.544     c-0.942,0-1.859-0.157-2.703-0.587c-0.613-0.313-1.185-0.804-1.362-1.468c-0.094-0.355-0.069-0.73-0.134-1.092     c-0.165-0.919-0.901-1.651-1.737-2.067c-0.835-0.416-1.773-0.571-2.689-0.749c-0.405-0.078-0.829-0.172-1.14-0.444     c-0.547-0.476-0.555-1.303-0.765-1.996c-0.344-1.136-1.37-2.036-2.542-2.227c-0.231-0.038-0.471-0.052-0.684-0.151     c-0.617-0.289-0.713-1.136-0.561-1.8c0.153-0.664,0.466-1.324,0.348-1.994c-0.088-0.498-0.59-0.936-1.044-0.936     c-0.158,0-0.309,0.053-0.436,0.174c-0.428-0.584-0.024-1.415,0.479-1.936c0.503-0.521,1.145-1.01,1.249-1.727     c0.119-0.817-0.566-1.578-1.35-1.836c-0.343-0.113-0.698-0.153-1.058-0.153c-0.464,0-0.935,0.068-1.394,0.136     c0.799-1.323,1.597-2.644,2.396-3.967c0.56-0.926,0.993-2.378,0.032-2.875c-0.161-0.083-0.325-0.119-0.491-0.119     c-1.003,0-2.075,1.308-3.046,1.308c-0.184,0-0.364-0.047-0.539-0.158c0.486-1.851,1.469-3.569,2.819-4.925     c-0.15,0.009-0.299,0.013-0.449,0.013c-0.812,0-1.625-0.131-2.394-0.387c1.515-1.335,3.03-2.67,4.546-4.005     c0.788-0.695,1.62-1.462,1.83-2.491c-1.785,0.336-3.521,0.928-5.139,1.751c0.107-1.309,1.571-1.968,2.745-2.556     c3.132-1.566,5.558-4.484,6.525-7.849c-2.568,1.284-5.071,2.698-7.497,4.233C11.923,9.668,12.891,7.583,13.858,5.497     L13.858,5.497z" fill="#B8B8B8"/>
    <path d="M35.495,58.375c-1.099-0.9-1.941-2.138-2.377-3.487c-0.046-0.36-0.05-0.394,0.087-0.65     c1.187,0.27,2.442,0.526,3.652,0.526c1.064,0,1.967-0.196,2.76-0.6c0.756-0.385,1.263-0.935,1.427-1.547     c0.056-0.211,0.071-0.428,0.087-0.646c0.011-0.153,0.021-0.307,0.049-0.458c0.142-0.788,0.766-1.527,1.67-1.976     c0.746-0.373,1.595-0.535,2.414-0.692l0.242-0.046c0.465-0.092,0.875-0.19,1.199-0.472c0.429-0.375,0.548-0.936,0.663-1.479     c0.042-0.195,0.083-0.391,0.14-0.577c0.33-1.095,1.312-1.955,2.442-2.141l0.146-0.021c0.189-0.026,0.386-0.054,0.569-0.14     c0.671-0.314,0.801-1.201,0.631-1.941c-0.042-0.182-0.097-0.364-0.15-0.546c-0.143-0.482-0.278-0.938-0.197-1.398     c0.075-0.428,0.523-0.833,0.921-0.833c0.136,0,0.254,0.047,0.35,0.14l0.104,0.1l0.084-0.115c0.457-0.626,0.083-1.504-0.49-2.098     c-0.092-0.095-0.188-0.189-0.285-0.283c-0.418-0.408-0.851-0.83-0.93-1.374c-0.112-0.767,0.556-1.466,1.266-1.699     c0.302-0.1,0.636-0.147,1.021-0.147c0.438,0,0.882,0.061,1.375,0.135l0.263,0.039l-2.533-4.194     c-0.358-0.592-0.712-1.508-0.533-2.143c0.071-0.251,0.223-0.439,0.451-0.558c0.137-0.071,0.279-0.105,0.435-0.105     c0.469,0,0.983,0.326,1.48,0.642c0.515,0.327,1.048,0.666,1.565,0.666c0.217,0,0.421-0.06,0.606-0.178l0.077-0.049l-0.023-0.088     c-0.468-1.78-1.376-3.417-2.633-4.756c0.046,0,0.093,0.001,0.14,0.001c0.83,0,1.65-0.132,2.437-0.394l0.207-0.069l-4.71-4.149     c-0.809-0.712-1.5-1.378-1.744-2.238c1.709,0.34,3.362,0.913,4.915,1.703l0.199,0.102l-0.018-0.223     c-0.108-1.313-1.449-1.979-2.633-2.567l-0.183-0.091c-3.005-1.501-5.37-4.289-6.377-7.496c2.463,1.242,4.894,2.62,7.228,4.097     l0.358,0.228L50.43,5.82c1.697,1.061,3.21,2.461,4.394,4.069l0.321,0.437l-0.8-4.351c2.268,1.176,3.701,3.893,3.357,6.426     l-0.051,0.379l0.265-0.276c1.359-1.412,2.076-3.447,1.927-5.402c0.896,1.208,1.541,2.607,1.873,4.072     c0.231,1.019,0.465,2.938-0.574,4.334c-0.239,0.322-0.55,0.638-0.851,0.944c-0.787,0.802-1.602,1.631-1.303,2.694     c0.251,0.895,1.216,1.302,2.007,1.302c0.097,0,0.193-0.006,0.289-0.018c0.867-0.107,1.628-0.588,2.306-1.045     c0.258,1.727-0.912,3.365-2.225,4.88c-1.374,1.587-2.691,3.298-2.393,5.237c0.055,0.354,0.221,0.578,0.456,0.613     c0.008,0,0.016,0,0.022,0c0.188,0,0.302-0.06,0.417-0.125l3.619-2.085c0.334,1.539-0.841,3.098-2.084,4.063     c-0.366,0.285-0.754,0.552-1.141,0.819c-1.027,0.71-2.091,1.444-2.769,2.519l-0.092,0.146l0.166,0.042     c0.781,0.199,1.59,0.3,2.403,0.3c0.865,0,1.722-0.113,2.547-0.338c0.354,1.015-0.52,2.184-1.608,2.754     c-0.37,0.193-0.763,0.352-1.154,0.51c-0.782,0.315-1.592,0.642-2.204,1.248c-0.233,0.229-0.443,0.502-0.647,0.766     c-0.474,0.612-0.921,1.189-1.61,1.257l-0.285,0.027l0.214,0.19c0.613,0.547,1.458,0.86,2.317,0.86     c0.413,0,0.823-0.074,1.196-0.214c0.115,0.813-0.258,1.725-0.958,2.312c-0.645,0.54-1.551,0.838-2.552,0.838     c-0.305-0.004-0.549-0.019-0.796-0.032c-0.297-0.018-0.598-0.035-0.892-0.035c-0.713,0-1.597,0.094-2.098,0.823l-0.059,0.085     l2.688,2.78c0.174,0.18,0.442,0.515,0.294,0.748c-0.075,0.118-0.231,0.173-0.494,0.173l-0.138-0.004l-5.337-0.287l0.18,0.219     c1.12,1.368,1.988,2.982,2.512,4.673c-0.719,0.415-1.562,0.634-2.445,0.634c-1.372,0-2.677-0.522-3.581-1.434l-0.083-0.084     l-0.089,0.078C42.292,56.646,38.958,58.078,35.495,58.375z" fill="#D9D9D9"/>
    <path d="M50.725,6.159c1.536,1.021,2.907,2.323,3.998,3.804l0.643,0.873L55.17,9.77l-0.655-3.558     c2.09,1.212,3.388,3.776,3.063,6.173l-0.103,0.758l0.531-0.551c1.284-1.335,2.006-3.216,1.98-5.071     c0.759,1.113,1.31,2.37,1.607,3.682c0.227,0.998,0.457,2.875-0.552,4.232c-0.234,0.315-0.542,0.628-0.84,0.932     c-0.812,0.827-1.652,1.682-1.334,2.815c0.269,0.958,1.291,1.394,2.128,1.394c0.102,0,0.204-0.006,0.304-0.019     c0.825-0.102,1.545-0.524,2.191-0.952c0.135,1.607-0.977,3.148-2.219,4.581c-1.393,1.609-2.728,3.346-2.421,5.337     c0.064,0.413,0.268,0.674,0.559,0.718l0.066,0.007h0.02c0.182,0,0.335-0.089,0.437-0.147l3.465-1.997     c0.203,1.427-0.903,2.862-2.068,3.767c-0.363,0.282-0.756,0.553-1.135,0.815c-1.038,0.717-2.112,1.459-2.804,2.555l-0.184,0.291     l0.333,0.085c0.79,0.201,1.609,0.303,2.433,0.303c0.835,0,1.663-0.104,2.462-0.311c0.233,0.924-0.581,1.967-1.582,2.49     c-0.363,0.19-0.76,0.35-1.144,0.505c-0.793,0.32-1.613,0.651-2.244,1.275c-0.239,0.236-0.453,0.512-0.659,0.779     c-0.456,0.59-0.887,1.147-1.523,1.208l-0.569,0.055l0.426,0.381c0.635,0.567,1.51,0.893,2.4,0.893     c0.373,0,0.743-0.058,1.089-0.169c0.046,0.731-0.306,1.522-0.931,2.045c-0.622,0.521-1.499,0.808-2.47,0.808l-0.07-0.001     c-0.233-0.003-0.476-0.017-0.722-0.031c-0.298-0.017-0.601-0.034-0.896-0.034c-0.744,0-1.667,0.1-2.202,0.877l-0.116,0.168     l0.142,0.147l1.133,1.172l1.484,1.535c0.093,0.096,0.388,0.423,0.278,0.595c-0.049,0.077-0.176,0.115-0.387,0.115     c-0.045,0-0.089-0.002-0.133-0.004l-2.527-0.136l-2.527-0.136l-0.566-0.03l0.359,0.438c1.09,1.33,1.938,2.894,2.459,4.534     c-0.681,0.372-1.471,0.568-2.297,0.568c-1.339,0-2.611-0.509-3.491-1.396l-0.167-0.168l-0.177,0.157     c-2.566,2.276-5.855,3.693-9.272,3.997c-1.06-0.883-1.874-2.085-2.291-3.377c-0.036-0.273-0.044-0.336,0.028-0.488     c1.166,0.263,2.395,0.508,3.586,0.508c1.084,0,2.005-0.201,2.816-0.613c0.788-0.402,1.317-0.979,1.49-1.627     c0.06-0.226,0.076-0.451,0.092-0.669c0.011-0.149,0.021-0.297,0.047-0.443c0.134-0.749,0.733-1.454,1.603-1.887     c0.732-0.365,1.573-0.526,2.386-0.682l0.239-0.046c0.463-0.091,0.908-0.197,1.256-0.5c0.46-0.401,0.584-0.982,0.703-1.544     c0.041-0.193,0.081-0.385,0.137-0.568c0.318-1.051,1.259-1.876,2.343-2.053l0.147-0.022c0.198-0.028,0.402-0.056,0.602-0.149     c0.735-0.344,0.881-1.294,0.699-2.082c-0.043-0.185-0.097-0.37-0.152-0.555c-0.139-0.468-0.27-0.909-0.194-1.34     c0.065-0.368,0.46-0.73,0.798-0.73c0.104,0,0.189,0.034,0.263,0.105l0.206,0.198l0.169-0.231c0.5-0.683,0.108-1.626-0.501-2.257     c-0.093-0.096-0.19-0.191-0.288-0.287c-0.422-0.411-0.82-0.8-0.893-1.303c-0.102-0.701,0.52-1.344,1.181-1.562     c0.289-0.095,0.61-0.141,0.982-0.141c0.429,0,0.868,0.06,1.355,0.133l0.526,0.079l-0.275-0.455l-1.188-1.967l-1.208-2     c-0.345-0.57-0.687-1.447-0.519-2.043c0.062-0.22,0.189-0.377,0.389-0.481c0.119-0.062,0.242-0.092,0.377-0.092     c0.433,0,0.931,0.317,1.413,0.623c0.53,0.337,1.079,0.685,1.633,0.685c0.241,0,0.467-0.066,0.673-0.197l0.154-0.098l-0.046-0.177     c-0.449-1.708-1.298-3.286-2.47-4.599c0.794-0.014,1.578-0.148,2.332-0.399l0.413-0.137l-0.326-0.288l-0.448-0.394l-4.099-3.611     c-0.727-0.641-1.358-1.243-1.64-1.978c1.623,0.342,3.192,0.896,4.671,1.648l0.399,0.203l-0.037-0.446     c-0.113-1.383-1.548-2.096-2.702-2.669l-0.181-0.09c-2.886-1.442-5.176-4.081-6.22-7.136c2.366,1.204,4.701,2.532,6.947,3.954     l0.718,0.454l-0.357-0.771L50.725,6.159 M50.144,5.5c0.967,2.086,1.935,4.171,2.902,6.257c-2.426-1.535-4.929-2.949-7.497-4.233     c0.966,3.365,3.392,6.284,6.525,7.849c1.175,0.587,2.638,1.247,2.745,2.556c-1.619-0.824-3.356-1.415-5.139-1.751     c0.209,1.029,1.042,1.797,1.83,2.491c1.515,1.335,3.03,2.67,4.546,4.005c-0.771,0.256-1.583,0.387-2.395,0.387     c-0.15,0-0.299-0.004-0.449-0.013c1.349,1.356,2.333,3.075,2.819,4.925c-0.175,0.111-0.355,0.158-0.539,0.158     c-0.971,0-2.043-1.307-3.046-1.308c-0.166,0-0.33,0.036-0.492,0.12c-0.96,0.497-0.528,1.95,0.032,2.875     c0.799,1.323,1.597,2.644,2.396,3.967c-0.459-0.069-0.929-0.136-1.392-0.136c-0.361,0-0.717,0.041-1.06,0.154     c-0.784,0.258-1.469,1.019-1.35,1.836c0.104,0.716,0.746,1.206,1.249,1.727c0.503,0.521,0.907,1.351,0.479,1.936     c-0.127-0.121-0.278-0.174-0.436-0.174c-0.454,0-0.957,0.438-1.044,0.936c-0.118,0.671,0.195,1.331,0.348,1.994     c0.153,0.664,0.056,1.511-0.562,1.8c-0.212,0.099-0.452,0.113-0.684,0.151c-1.172,0.191-2.199,1.091-2.542,2.227     c-0.21,0.694-0.218,1.52-0.765,1.996c-0.312,0.271-0.735,0.364-1.14,0.444c-0.917,0.178-1.853,0.332-2.689,0.749     c-0.835,0.416-1.573,1.148-1.737,2.067c-0.064,0.361-0.04,0.737-0.134,1.092c-0.178,0.665-0.749,1.156-1.362,1.468     c-0.843,0.429-1.761,0.586-2.702,0.586c-1.234,0-2.509-0.269-3.718-0.544c-0.205,0.38-0.197,0.403-0.141,0.831     c0.45,1.396,1.315,2.655,2.456,3.578c3.498-0.289,6.892-1.738,9.518-4.068c0.956,0.963,2.315,1.47,3.669,1.47     c0.909,0,1.815-0.229,2.595-0.701c-0.528-1.75-1.405-3.395-2.564-4.809c1.685,0.09,3.369,0.182,5.054,0.272     c0.047,0.003,0.096,0.004,0.146,0.004c0.234,0,0.477-0.041,0.598-0.231c0.186-0.291-0.069-0.655-0.31-0.903     c-0.872-0.902-1.745-1.805-2.617-2.707c0.438-0.637,1.188-0.769,1.996-0.769c0.537,0,1.101,0.058,1.615,0.066     c0.024,0,0.049,0.001,0.074,0.001c0.943,0,1.908-0.261,2.63-0.867c0.741-0.621,1.181-1.637,0.974-2.581     c-0.407,0.177-0.85,0.263-1.293,0.263c-0.812,0-1.627-0.288-2.233-0.829c1.061-0.102,1.575-1.309,2.334-2.058     c0.895-0.885,2.213-1.153,3.328-1.736c1.115-0.583,2.128-1.86,1.626-3.014c-0.852,0.242-1.737,0.363-2.622,0.363     c-0.799,0-1.597-0.099-2.371-0.296c0.914-1.448,2.529-2.257,3.88-3.306c1.351-1.05,2.557-2.708,2.088-4.353     c-1.254,0.722-2.508,1.445-3.762,2.168c-0.097,0.056-0.202,0.114-0.312,0.114c-0.015,0-0.031-0.001-0.046-0.004     c-0.219-0.033-0.318-0.291-0.351-0.509c-0.297-1.926,1.087-3.662,2.363-5.135c1.276-1.473,2.617-3.266,2.219-5.174     c-0.742,0.504-1.521,1.023-2.411,1.133c-0.09,0.011-0.181,0.017-0.273,0.017c-0.817,0-1.669-0.435-1.887-1.211     c-0.389-1.388,1.274-2.373,2.134-3.53c0.919-1.236,0.937-2.935,0.595-4.437c-0.37-1.63-1.118-3.172-2.168-4.472     c0.301,2.06-0.4,4.244-1.843,5.744c0.364-2.687-1.189-5.523-3.649-6.664c0.249,1.353,0.498,2.707,0.747,4.061     C53.642,8.075,52.006,6.597,50.144,5.5L50.144,5.5z" fill="#B8B8B8"/>
    <path d="M31.705,45.584c-0.367-0.001-0.728-0.124-1.016-0.348l-8.111-6.276     c-0.41-0.317-0.645-0.797-0.645-1.314V23.301c0-0.917,0.744-1.663,1.658-1.663c0.159,0,0.318,0.023,0.474,0.069     c2.505,0.739,5.864,1.621,7.64,1.621c1.775,0,5.135-0.881,7.641-1.621c0.155-0.046,0.314-0.069,0.474-0.069     c0.915,0,1.659,0.746,1.66,1.664v14.344c0,0.518-0.235,0.997-0.645,1.314l-8.112,6.276C32.434,45.46,32.072,45.584,31.705,45.584     z" fill="#D9D9D9"/>
    <path d="M23.59,21.763c0.147,0,0.295,0.022,0.439,0.064c2.514,0.742,5.887,1.625,7.676,1.625     s5.162-0.884,7.676-1.625c0.144-0.042,0.292-0.064,0.439-0.064c0.846,0,1.534,0.69,1.535,1.539v14.344     c0,0.472-0.223,0.926-0.597,1.215l-8.111,6.277c-0.266,0.207-0.601,0.321-0.94,0.321c-0.339-0.001-0.673-0.115-0.94-0.322     l-8.111-6.277c-0.373-0.289-0.596-0.743-0.596-1.215V23.301c0-0.417,0.163-0.806,0.459-1.096     C22.807,21.92,23.188,21.763,23.59,21.763L23.59,21.763 M23.59,21.513c-0.953,0-1.782,0.771-1.782,1.788v14.345     c0,0.553,0.256,1.075,0.694,1.413l8.111,6.276c0.321,0.249,0.707,0.373,1.092,0.374c0.386,0,0.773-0.124,1.094-0.374l8.111-6.276     c0.438-0.338,0.694-0.86,0.694-1.413V23.302c-0.001-1.016-0.831-1.789-1.785-1.789c-0.167,0-0.338,0.024-0.509,0.074     c-2.318,0.684-5.807,1.615-7.605,1.615c-1.799,0-5.287-0.932-7.605-1.615C23.928,21.537,23.757,21.513,23.59,21.513L23.59,21.513     z" fill="#B8B8B8"/>
  </g>
</svg>
