<svg xmlns="http://www.w3.org/2000/svg" xmlns:xlink="http://www.w3.org/1999/xlink" version="1.1" viewBox="0 0 64 64">
  <g id="achievement-color" class="svg-hide">
    <path d="M46.131,42.149c0.686-0.531,1.086-1.348,1.086-2.215V17.452   c0-1.872-1.797-3.216-3.593-2.686c-3.632,1.072-9.101,2.531-11.92,2.531s-8.287-1.459-11.92-2.531   c-1.796-0.53-3.593,0.814-3.593,2.686v22.483c0,0.866,0.401,1.685,1.086,2.215l12.712,9.838c1.009,0.781,2.419,0.781,3.428,0   L46.131,42.149z M30.275,48.942l-10.605-8.207c-0.571-0.443-0.907-1.125-0.907-1.847V20.13c0-1.562,1.499-2.683,2.997-2.241   c3.031,0.894,7.593,2.112,9.945,2.112s6.913-1.218,9.945-2.112c1.498-0.442,2.997,0.679,2.997,2.241v18.757   c0,0.723-0.334,1.405-0.907,1.847l-10.605,8.207C32.293,49.594,31.116,49.594,30.275,48.942z" fill="#FECE92"/>
    <path d="M24.441,54.05c-0.613-0.313-1.185-0.804-1.362-1.468   c-0.094-0.355-0.069-0.73-0.134-1.092c-0.165-0.919-0.901-1.651-1.737-2.067c-0.835-0.416-1.773-0.571-2.689-0.749   c-0.405-0.078-0.829-0.172-1.14-0.443c-0.547-0.476-0.555-1.303-0.765-1.996c-0.344-1.136-1.37-2.036-2.542-2.227   c-0.231-0.038-0.471-0.052-0.684-0.151c-0.617-0.289-0.713-1.136-0.561-1.8s0.466-1.324,0.348-1.994   c-0.118-0.671-0.989-1.233-1.48-0.762c-0.428-0.584-0.024-1.415,0.479-1.936c0.503-0.521,1.145-1.01,1.249-1.727   c0.119-0.817-0.566-1.578-1.35-1.836c-0.784-0.258-1.636-0.139-2.453-0.018c0.799-1.323,1.597-2.644,2.396-3.967   c0.56-0.926,0.993-2.378,0.032-2.875c-1.321-0.684-2.822,1.828-4.077,1.03c0.486-1.851,1.469-3.569,2.819-4.925   c-0.96,0.058-1.932-0.07-2.844-0.374c1.515-1.335,3.03-2.67,4.546-4.005c0.788-0.695,1.62-1.462,1.83-2.491   c-1.785,0.336-3.521,0.928-5.139,1.751c0.107-1.309,1.571-1.968,2.745-2.556c3.132-1.566,5.558-4.484,6.525-7.849   c-2.568,1.284-5.071,2.698-7.497,4.233c0.967-2.086,1.935-4.171,2.902-6.257c-1.862,1.097-3.498,2.575-4.78,4.315   C9.326,8.46,9.575,7.106,9.824,5.753c-2.46,1.141-4.013,3.978-3.649,6.664c-1.444-1.501-2.144-3.684-1.843-5.744   c-1.051,1.3-1.798,2.843-2.168,4.472c-0.341,1.502-0.323,3.201,0.595,4.437c0.86,1.157,2.523,2.142,2.134,3.53   c-0.242,0.863-1.27,1.306-2.16,1.195c-0.89-0.11-1.669-0.629-2.411-1.133c-0.397,1.908,0.944,3.702,2.219,5.174   c1.276,1.473,2.659,3.21,2.363,5.135c-0.034,0.219-0.132,0.476-0.351,0.509c-0.126,0.019-0.248-0.047-0.358-0.11   c-1.254-0.722-2.508-1.445-3.762-2.168c-0.469,1.645,0.737,3.303,2.088,4.353c1.351,1.049,2.967,1.859,3.881,3.305   c-1.632,0.416-3.373,0.393-4.994-0.067c-0.502,1.154,0.511,2.431,1.626,3.014c1.115,0.583,2.433,0.851,3.328,1.736   c0.758,0.749,1.272,1.956,2.334,2.058c-0.938,0.837-2.373,1.069-3.526,0.567c-0.207,0.945,0.233,1.961,0.974,2.581   c0.741,0.621,1.737,0.88,2.704,0.866c1.287-0.019,2.882-0.357,3.611,0.703c-0.872,0.902-1.745,1.805-2.617,2.707   c-0.24,0.248-0.495,0.612-0.31,0.903c0.147,0.23,0.472,0.241,0.744,0.226c1.685-0.09,3.369-0.182,5.054-0.272   c-1.159,1.415-2.035,3.059-2.564,4.809c1.94,1.176,4.666,0.841,6.264-0.769c2.626,2.33,6.02,3.779,9.518,4.068   c1.141-0.922,2.005-2.182,2.456-3.578c0.057-0.429,0.064-0.451-0.141-0.831C28.729,54.579,26.389,55.043,24.441,54.05z" fill="#F7941D"/>
    <path d="M61.48,32.068c1.351-1.05,2.557-2.708,2.088-4.353   c-1.254,0.722-2.508,1.445-3.762,2.168c-0.11,0.063-0.232,0.13-0.358,0.11c-0.219-0.033-0.317-0.291-0.351-0.509   c-0.297-1.926,1.087-3.662,2.363-5.135c1.276-1.473,2.617-3.266,2.219-5.174c-0.742,0.504-1.521,1.023-2.411,1.133   c-0.89,0.11-1.918-0.331-2.16-1.195c-0.389-1.388,1.274-2.373,2.134-3.53c0.919-1.236,0.937-2.935,0.595-4.437   c-0.37-1.63-1.118-3.172-2.168-4.472c0.301,2.06-0.4,4.244-1.843,5.744c0.364-2.687-1.189-5.523-3.649-6.664   c0.249,1.353,0.498,2.707,0.747,4.061c-1.282-1.74-2.918-3.218-4.78-4.315c0.967,2.086,1.935,4.171,2.902,6.257   c-2.426-1.535-4.929-2.949-7.497-4.233c0.966,3.365,3.392,6.284,6.525,7.849c1.175,0.587,2.638,1.247,2.745,2.556   c-1.619-0.824-3.356-1.415-5.139-1.751c0.209,1.029,1.042,1.797,1.83,2.491c1.515,1.335,3.03,2.67,4.546,4.005   c-0.913,0.304-1.884,0.432-2.844,0.374c1.349,1.356,2.333,3.075,2.819,4.925c-1.256,0.797-2.756-1.714-4.077-1.03   c-0.96,0.497-0.528,1.95,0.032,2.875c0.799,1.323,1.597,2.644,2.396,3.967c-0.817-0.122-1.669-0.24-2.453,0.018   c-0.784,0.258-1.469,1.019-1.35,1.836c0.104,0.716,0.746,1.206,1.249,1.727c0.503,0.521,0.907,1.351,0.479,1.936   c-0.491-0.471-1.362,0.091-1.48,0.762s0.195,1.331,0.348,1.994c0.153,0.664,0.056,1.511-0.562,1.8   c-0.212,0.099-0.452,0.113-0.684,0.151c-1.172,0.191-2.199,1.091-2.542,2.227c-0.21,0.694-0.218,1.52-0.765,1.996   c-0.312,0.271-0.735,0.364-1.14,0.444c-0.917,0.178-1.853,0.332-2.689,0.749c-0.835,0.416-1.573,1.148-1.737,2.067   c-0.064,0.361-0.04,0.737-0.134,1.092c-0.178,0.665-0.749,1.156-1.362,1.468c-1.949,0.992-4.289,0.528-6.42,0.042   c-0.205,0.38-0.197,0.403-0.141,0.831c0.45,1.396,1.315,2.655,2.456,3.578c3.498-0.289,6.892-1.738,9.518-4.068   c1.597,1.61,4.324,1.946,6.264,0.769c-0.528-1.75-1.405-3.395-2.564-4.809c1.685,0.09,3.369,0.182,5.054,0.272   c0.272,0.015,0.597,0.004,0.744-0.226c0.186-0.291-0.069-0.655-0.31-0.903c-0.872-0.902-1.745-1.805-2.617-2.707   c0.729-1.061,2.324-0.721,3.611-0.703c0.966,0.014,1.963-0.245,2.704-0.866c0.741-0.621,1.181-1.637,0.974-2.581   c-1.153,0.501-2.589,0.271-3.526-0.567c1.061-0.102,1.575-1.309,2.334-2.058c0.895-0.885,2.213-1.153,3.328-1.736   c1.115-0.583,2.128-1.86,1.626-3.014c-1.62,0.46-3.361,0.483-4.994,0.067C58.514,33.927,60.129,33.117,61.48,32.068z" fill="#F7941D"/>
    <path d="M39.309,21.587c-2.318,0.684-5.807,1.615-7.605,1.615   c-1.799,0-5.287-0.932-7.605-1.615c-1.146-0.337-2.292,0.519-2.292,1.713v14.345c0,0.553,0.256,1.075,0.694,1.413l8.111,6.276   c0.321,0.249,0.707,0.373,1.092,0.374c0.386,0,0.773-0.124,1.094-0.374l8.111-6.276c0.438-0.338,0.694-0.86,0.694-1.413V23.302   C41.602,22.107,40.455,21.25,39.309,21.587z" fill="#FECE92"/>
  </g>
</svg>
