<svg xmlns="http://www.w3.org/2000/svg" xmlns:xlink="http://www.w3.org/1999/xlink" version="1.1" viewBox="0 0 64 64">
  <g id="agility" class="svg-hide">
    <path d="M57.355,42.637c1.422-3.375,2.146-6.952,2.146-10.637c0-3.685-0.724-7.262-2.146-10.637V6.756   H42.794c-3.387-1.439-6.98-2.172-10.683-2.172c-3.702,0-7.295,0.733-10.683,2.172H6.867v14.606C5.446,24.736,4.722,28.313,4.722,32   c0,3.687,0.724,7.264,2.145,10.637v14.607h14.561c3.39,1.439,6.983,2.173,10.683,2.173c3.701,0,7.294-0.734,10.683-2.173h14.561   V42.637z M55.855,8.256v10.068c-0.321-0.559-0.663-1.103-1.021-1.636c-0.065-0.098-0.138-0.19-0.204-0.286   c-0.377-0.546-0.774-1.076-1.188-1.591c-0.13-0.161-0.26-0.322-0.393-0.481c-0.487-0.579-0.99-1.144-1.523-1.68   c-0.008-0.008-0.015-0.016-0.022-0.024c-0.54-0.541-1.11-1.051-1.695-1.546c-0.158-0.134-0.318-0.264-0.479-0.394   c-0.51-0.412-1.033-0.807-1.573-1.182c-0.102-0.071-0.2-0.147-0.303-0.217c-0.535-0.361-1.081-0.707-1.642-1.031H55.855z    M8.367,8.256h10.042c-0.562,0.324-1.108,0.67-1.643,1.032c-0.102,0.069-0.199,0.145-0.3,0.215   c-0.541,0.376-1.066,0.772-1.577,1.185c-0.16,0.129-0.319,0.258-0.476,0.391c-0.585,0.495-1.156,1.006-1.697,1.548   c-0.006,0.006-0.011,0.012-0.017,0.018c-0.535,0.537-1.039,1.104-1.528,1.685c-0.133,0.158-0.262,0.318-0.391,0.479   c-0.415,0.516-0.813,1.046-1.19,1.593c-0.066,0.096-0.138,0.188-0.203,0.285c-0.358,0.533-0.7,1.077-1.021,1.636V8.256z    M8.367,55.744V45.676c0.321,0.56,0.664,1.105,1.022,1.638c0.064,0.096,0.135,0.186,0.2,0.281c0.379,0.549,0.778,1.082,1.195,1.6   c0.127,0.159,0.255,0.316,0.386,0.472c0.494,0.587,1.002,1.16,1.543,1.702c0.001,0.001,0.001,0.002,0.002,0.002   c0.542,0.544,1.115,1.056,1.701,1.552c0.156,0.132,0.313,0.26,0.472,0.388c0.512,0.414,1.037,0.81,1.579,1.187   c0.101,0.07,0.197,0.146,0.299,0.215c0.535,0.361,1.081,0.707,1.642,1.031H8.367z M21.869,55.806   c-6.121-2.642-10.938-7.475-13.563-13.606C6.923,38.97,6.222,35.538,6.222,32c0-3.538,0.701-6.969,2.084-10.199   c2.625-6.132,7.442-10.964,13.563-13.607c3.244-1.4,6.689-2.111,10.242-2.111c3.553,0,6.998,0.71,10.242,2.111   c6.121,2.643,10.938,7.475,13.563,13.606C57.3,25.033,58.001,28.464,58.001,32c0,3.536-0.701,6.968-2.085,10.199   c-2.625,6.132-7.441,10.964-13.563,13.606c-3.246,1.401-6.691,2.111-10.242,2.111C28.561,57.917,25.115,57.207,21.869,55.806z    M55.855,55.744H45.813c0.562-0.324,1.108-0.67,1.642-1.031c0.103-0.069,0.2-0.146,0.302-0.216c0.539-0.375,1.062-0.77,1.571-1.181   c0.163-0.132,0.325-0.263,0.484-0.398c0.582-0.493,1.151-1.002,1.69-1.541c0.012-0.012,0.023-0.026,0.035-0.038   c0.528-0.531,1.026-1.091,1.508-1.664c0.135-0.161,0.267-0.324,0.399-0.488c0.412-0.513,0.807-1.04,1.182-1.583   c0.068-0.098,0.141-0.192,0.208-0.292c0.357-0.532,0.699-1.076,1.02-1.635V55.744z"/>
    <path d="M46.804,34.219c0.179,3.128-6.415,10.197-7.82,4.58c-0.414-1.655,0.806-3.86,1.905-5.034    c0.877-0.937,3.26-2.676,4.614-2.312c0.515,0.139,1.057,0.698,1.159,1.126L46.804,34.219z"/>
    <path d="M38.589,32.38c-4.919-0.719-1.104-7.935,1.369-9.446c2.494-1.524,5.354,0.637,4.918,3.456    C44.551,28.494,41.014,32.735,38.589,32.38z"/>
    <path d="M37.197,19.278c1.996,2.27-2.691,9.045-5.34,8.312c-4.923-1.363-0.48-8.416,1.495-9.475    c0.671-0.36,1.341-0.582,2.183-0.27L37.197,19.278z"/>
    <path d="M22.058,28.788c-2.339-2.141,0.838-8.034,3.039-9.299c3.92-2.253,3.392,5.612,2.012,7.496    c-0.858,1.172-2.537,2.562-3.989,2.618L22.058,28.788z"/>
    <path d="M36.151,41.028c-0.003,0.132,0.003,0.234,0.019,0.295c0.493,1.816,1.522,3.409-0.036,5.133    c-1.427,1.579-4.028,1.509-5.731,0.345c-1.638-1.12-2.027-3.49-3.449-4.853c-1.705-1.634-3.554-1.703-5.701-2.009    c-2.349-0.335-3.406-2.041-3.771-4.325c-0.376-2.355,0.885-3.062,3.061-3.379c1.45-0.211,2.958-0.352,4.245-1.081    c2.406-1.364,2.797-3.668,5.762-1.705c1.754,1.161,3.994,2.469,5.233,4.215c0.733,1.033,1.435,1.805,1.283,2.982    C36.879,38.107,36.191,39.452,36.151,41.028z"/>
  </g>
</svg>
