<svg xmlns="http://www.w3.org/2000/svg" xmlns:xlink="http://www.w3.org/1999/xlink" version="1.1" viewBox="0 0 64 64">
  <g id="alliance" class="svg-hide">
    <path d="M31.611,4.723c0.502,0.1,0.777,0.77,0.777,0.77v2.979c5.669-2.512,6.337-2.005,6.337-2.005   s-1.057,0.978-0.168,2.361c0.889,1.389,3.869,0.675,3.869,0.675c-0.223,1.849,3.466,2.924,5.801,1.947   c2.334-0.974,5.336-0.31,5.336-0.31c-1.337-1.9-7.39-0.563-8.616-1.283c-1.22-0.719,1.946-1.746,1.946-1.746s-2.444,0.463-4.446,0   c-1.998-0.464,0.613-1.334,0.613-1.334c-1.168,0-1.611-0.771-1.611-0.771c-0.389-1.541,2.889-1.743,2.889-1.743   c-3.835-0.878-5.781,0.768-7.782,1.024c-2.001,0.258-1.527-0.872-1.527-0.872c0.415-1.49,3.418-1.517,3.418-1.517   c-1.557-0.748-3.724-0.075-4.391-0.024c-0.668,0.051-0.441,0-0.441,0L31.611,0h-0.194L29.42,2.873c0,0,0.222,0.051-0.447,0   c-0.667-0.051-2.833-0.724-4.391,0.024c0,0,3.002,0.027,3.418,1.517c0,0,0.474,1.13-1.527,0.872   C24.47,5.03,22.524,3.384,18.69,4.262c0,0,3.279,0.202,2.891,1.743c0,0-0.445,0.771-1.611,0.771c0,0,2.612,0.871,0.61,1.334   c-2.003,0.463-4.447,0-4.447,0s3.169,1.027,1.946,1.746c-1.222,0.719-7.279-0.617-8.615,1.283c0,0,3.001-0.664,5.335,0.31   c2.334,0.977,6.026-0.098,5.802-1.947c0,0,2.98,0.715,3.867-0.675c0.89-1.383-0.166-2.361-0.166-2.361s0.669-0.507,6.339,2.005   V5.493c0,0,0.277-0.67,0.775-0.77H31.611z"/>
    <path d="M14.578,13.04c0,0-0.832-1.281-1.945-0.77c-1.11,0.515-0.943,2.002-0.943,2.002   s-5.006,4.47-4.06,8.063c0,0,0.167,0.72,1.279,1.233L9.02,24.75c0,0,1.28,0.156,1.001,1.028c-0.277,0.875-0.723,4.724-0.556,6.883   c0.168,2.154,0,3.75,0,3.75s-1.834,0.152-1.612,1.796c0.226,1.645,2.726,1.439,3.445,0.359c0.725-1.076,2.059-6.056,6.672-5.186   c0,0-0.868-2.619-6.26-0.461c0,0-1.279-10.942,6.115-12.842c0,0-1.613-0.664-3.948,0.055c0,0-0.332-1.339-2.333-1.388   c0,0,0.644-2.98,3.146-4.415c0,0,1.552,0.255,1.946-0.516C17.024,13.04,14.578,13.04,14.578,13.04z"/>
    <path d="M7.798,26.188c-0.598,0-0.888,0.872-0.774,1.44c0.11,0.563,0.774,1.953,0.774,1.953   s0.056-1.286,0.334-1.695C8.411,27.47,8.964,26.188,7.798,26.188z"/>
    <path d="M29.028,17.768c0,0-3.945-3.44-4.89-3.44c-0.946,0-2.501,1.795-3.001,3.079   c-0.501,1.286-1.113,3.648,1.446,4.827c2.556,1.181,2.944,1.441,3.054,2.054c0.11,0.618,0.222,1.85-0.779,2.67   c-0.996,0.821-3.276,2.874-2.385,5.289c0.886,2.415,2.888,6.009,6.279,5.496c3.39-0.511,1.554-4.466,1.554-4.466   s-3.109-3.442-2.832-5.908c0.275-2.463,1.444-5.854,1.831-6.366c0.39-0.512-0.943,0.052-1.388,0.206   c-0.443,0.155-2.28,1.335-3.502-0.566c-1.222-1.899-1.277-3.391-0.498-3.8c0.776-0.41,1.278,0,2.943,0.926   c1.67,0.925,2.058,1.283,2.556,1.131C29.917,18.743,29.371,18.062,29.028,17.768z"/>
    <path d="M34.698,17.768c0,0,3.943-3.44,4.89-3.44c0.945,0,2.499,1.795,3.002,3.079   c0.499,1.286,1.11,3.648-1.447,4.827c-2.557,1.181-2.944,1.441-3.058,2.054c-0.111,0.618-0.219,1.85,0.778,2.67   c1,0.821,3.279,2.874,2.391,5.289c-0.89,2.415-2.89,6.009-6.28,5.496c-3.391-0.511-1.555-4.466-1.555-4.466   s3.109-3.442,2.834-5.908c-0.279-2.463-1.446-5.854-1.834-6.366c-0.39-0.512,0.943,0.052,1.391,0.206   c0.444,0.155,2.276,1.335,3.499-0.566c1.225-1.899,1.279-3.391,0.5-3.8c-0.778-0.41-1.278,0-2.942,0.926   c-1.669,0.925-2.059,1.283-2.558,1.131C33.805,18.743,34.353,18.062,34.698,17.768z"/>
    <path d="M31.976,46.476c0-0.409,0.277-2.362,0.946-2.209c0.672,0.153,1.273,1.953,1.31,0.821   c0.032-1.13,2.132-3.851,2.242-4.571c0.114-0.718-0.607-0.718-2.278-1.106c-1.667-0.393-2.219-1.975-2.219-1.975h-0.226   c0,0-0.554,1.582-2.222,1.975c-1.668,0.389-2.39,0.389-2.278,1.106c0.114,0.719,2.211,3.441,2.244,4.571   c0.034,1.132,0.637-0.668,1.305-0.821c0.675-0.153,0.95,1.8,0.95,2.209H31.976z"/>
    <path d="M31.862,27.268c0,0,3-0.26,2.889,1.18c-0.11,1.44-2.776,4.061-2.776,4.061h-0.226   c0,0-2.667-2.62-2.776-4.061C28.862,27.008,31.862,27.268,31.862,27.268z"/>
    <path d="M31.056,20.565c0,0-1.415,2.362-1.443,3.363c-0.028,1.004,0.028,1.235,0.304,1.569   c0.278,0.332,2.446,0.77,4.029,0c0,0,0.584-0.335,0.278-1.672c-0.308-1.331-1.528-3.26-1.528-3.26s0.389,2.057,0.361,3.11   c-0.028,1.051-0.556,0.973-0.833,1.024c-0.276,0.051-1.178,0.157-1.425-0.541C30.558,23.466,31.056,20.565,31.056,20.565z"/>
    <path d="M30.799,11.91c0,0-0.549,0.36-0.577,0.593c-0.026,0.229-0.165,1.053-0.222,1.385   c-0.055,0.332-0.61,1.08-0.555,1.695c0.055,0.617,1.362,2.13,2.279,2.237c0.916,0.102,2.263-0.928,2.59-2.184   c0,0,0.162-0.437-0.562-1.308c-0.723-0.876,0.009-1.824-0.831-2.417l-0.282,3.132c0,0-0.567,0.49-0.756,0.619   c-0.186,0.129-0.632-0.457-0.715-0.793C31.086,14.53,30.799,11.91,30.799,11.91z"/>
    <path d="M17.218,34.829c0,0-1.333-0.54-2.501,0.964c-1.167,1.501-1.874,4.353-1.791,5.278   c0,0-1.21-0.194-1.709,0.189c0,0,0.832,0.236,0.919,0.466c0.082,0.231-2.878,1.462-3.214,2.967   c-0.33,1.501,1.417,2.196,1.544,2.153c0.127-0.037-0.292-0.807-0.375-1.463c-0.083-0.654,0.668-1.576,1.668-1.425   c0,0,0.459,1.771,1.501,1.425c0,0-1.412-2.039-0.519-2.736c0.893-0.691,1.35,0.772,1.35,0.772s1.046,2.504,0.378,4.931   l-0.209,0.309c0,0,0.959-0.388,1.46-1.58c0,0,1.708,1.465,2.626,3.773c0.918,2.315,0.918,3.276,0.959,3.431   c0.042,0.151,0.332,1.693,0.625-0.656c0.292-2.35,0.209-4.469,1.585-5.431c1.375-0.962,1.625-0.886,2.167-0.538   c0.541,0.346,1.167,0.808,1.749,0.346c0.583-0.464,0.167-1.734-0.791-1.695c-0.958,0.038-2.66-0.698-5.245,2.309   c0,0-1.168-0.422-2.208-2.772c-1.042-2.348-2.627-6.778-1.335-9.435c0,0,0.827,0.771,1.616-0.04   C18.261,35.562,17.218,34.829,17.218,34.829z"/>
    <path d="M49.182,13.04c0,0,0.833-1.281,1.943-0.77c1.113,0.515,0.945,2.002,0.945,2.002   s5,4.47,4.059,8.063c0,0-0.165,0.72-1.28,1.233l-0.108,1.181c0,0-1.28,0.156-1.001,1.028c0.278,0.875,0.719,4.724,0.555,6.883   c-0.167,2.154,0,3.75,0,3.75s1.833,0.152,1.613,1.796c-0.225,1.645-2.725,1.439-3.447,0.359c-0.722-1.076-2.055-6.056-6.669-5.186   c0,0,0.868-2.619,6.26-0.461c0,0,1.277-10.942-6.117-12.842c0,0,1.614-0.664,3.95,0.055c0,0,0.331-1.339,2.334-1.388   c0,0-0.646-2.98-3.149-4.415c0,0-1.558,0.255-1.944-0.516C46.738,13.04,49.182,13.04,49.182,13.04z"/>
    <path d="M55.96,26.188c0.6,0,0.893,0.872,0.779,1.44c-0.11,0.563-0.779,1.953-0.779,1.953   s-0.053-1.286-0.332-1.695C55.351,27.47,54.796,26.188,55.96,26.188z"/>
    <path d="M46.542,34.829c0,0,1.335-0.54,2.502,0.964c1.167,1.501,1.873,4.353,1.79,5.278   c0,0,1.208-0.194,1.711,0.189c0,0-0.835,0.236-0.917,0.466c-0.082,0.231,2.873,1.462,3.21,2.967   c0.333,1.501-1.417,2.196-1.544,2.153c-0.126-0.037,0.293-0.807,0.376-1.463c0.084-0.654-0.668-1.576-1.668-1.425   c0,0-0.456,1.771-1.501,1.425c0,0,1.412-2.039,0.517-2.736c-0.892-0.691-1.351,0.772-1.351,0.772s-1.038,2.504-0.373,4.931   l0.208,0.309c0,0-0.96-0.388-1.459-1.58c0,0-1.708,1.465-2.625,3.773c-0.917,2.315-0.917,3.276-0.958,3.431   c-0.042,0.151-0.335,1.693-0.627-0.656c-0.294-2.35-0.209-4.469-1.583-5.431c-1.375-0.962-1.627-0.886-2.169-0.538   c-0.539,0.346-1.168,0.808-1.748,0.346c-0.586-0.464-0.168-1.734,0.79-1.695c0.958,0.038,2.661-0.698,5.244,2.309   c0,0,1.167-0.422,2.21-2.772c1.042-2.348,2.626-6.778,1.333-9.435c0,0-0.826,0.771-1.62-0.04   C45.5,35.562,46.542,34.829,46.542,34.829z"/>
    <path d="M41.331,50.431c-0.219-0.181-0.062-0.514-0.007-1.232c0.056-0.719-0.28,0-0.28,0   c-0.874,0.885-1.173,1.615-1.173,1.615c-0.21,1.774-1.419,3.816-3.292,5.537c-1.878,1.719-3.911,2.745-4.118,2.932   c-0.077,0.073-0.178,0.107-0.278,0.121v-0.005c0,0-0.077,0.015-0.175,0.019c-0.099-0.005-0.173-0.019-0.173-0.019v0.005   c-0.1-0.013-0.204-0.048-0.28-0.121c-0.207-0.188-2.241-1.213-4.118-2.932c-1.875-1.722-3.082-3.763-3.293-5.537   c0,0-0.299-0.729-1.173-1.615c0,0-0.333-0.719-0.277,0c0.055,0.719,0.209,1.052-0.007,1.232c-0.792,0.652-1.551,1.154-1.426,2.042   c0.124,0.885,0.376,1.54,0.624,1.81c0.25,0.267,0.836,0.636,0.836,0.636s-1.752-2.871-0.377-2.756c0,0,0.667-0.039,1.46,1.464   c0.789,1.501,0.622,1.926,1.168,2.579c0.54,0.655,1.083,1.389,1.292,1.618c0.208,0.23,0.456,0,0.208,0.23   c-0.253,0.233-0.417,0.233-0.375,0.771c0.042,0.541,0.122,2.043,0.291,2.273c0.165,0.233,0.373,0.385,0.498,0   c0.125-0.386,0.044-1.732,0.918-1.657c0.876,0.076,1.252,0.425,1.46,0.617c0.207,0.194,0.833,0.502,0.833,0.502   s-2.045,1.886-2.001,2.388c0.042,0.499-0.126,0.73,0.124,0.846c0.253,0.114,1.045-0.195,1.669-0.734   c0.624-0.538,1.485-1.305,1.973-1.383h0.29c0.487,0.078,1.351,0.845,1.974,1.383c0.624,0.539,1.417,0.848,1.667,0.734   c0.25-0.116,0.084-0.347,0.124-0.846c0.042-0.502-2.001-2.388-2.001-2.388s0.629-0.308,0.835-0.502   c0.209-0.192,0.586-0.54,1.46-0.617c0.876-0.076,0.794,1.271,0.917,1.657c0.126,0.385,0.334,0.233,0.502,0   c0.165-0.23,0.248-1.732,0.292-2.273c0.042-0.539-0.128-0.539-0.375-0.771c-0.253-0.23,0,0,0.203-0.23   c0.214-0.229,0.753-0.964,1.294-1.618c0.543-0.654,0.377-1.078,1.168-2.579c0.792-1.504,1.46-1.464,1.46-1.464   c1.374-0.115-0.376,2.756-0.376,2.756s0.584-0.369,0.834-0.636c0.25-0.27,0.502-0.925,0.625-1.81   C42.882,51.585,42.121,51.083,41.331,50.431z"/>
  </g>
</svg>
