<svg xmlns="http://www.w3.org/2000/svg" xmlns:xlink="http://www.w3.org/1999/xlink" version="1.1" viewBox="0 0 64 64">
  <g id="axes" class="svg-hide">
    <path d="M62.759,13.157c-4.353,3.052-9.917,2.504-11.921,1.075l-1.543-1.1l1.466-2.131L47.251,8.5   l-1.466,2.13L42.56,8.331l-0.519-2.998l-7.479,1.341l1.319,7.612l3.169-0.569l3.094,2.205L32,30.672L21.856,15.924l3.094-2.205   l3.169,0.569l1.319-7.612L21.96,5.335l-0.52,2.998l-3.225,2.299L16.749,8.5l-3.509,2.501l1.466,2.131l-1.543,1.1   c-2.004,1.428-7.568,1.977-11.921-1.075c-0.075,1.033-0.07,2.086,0.022,3.151c0.872,10.144,9.274,17.776,19.11,17.688l-0.45-5.235   c-1.167-0.37-2.228-1.122-2.983-2.22c-1.813-2.637-1.184-6.27,1.406-8.116l11.039,16.048L18.534,50.248l-4.496,0.807l1.319,7.612   l7.478-1.342l-0.793-4.575L32,38.274l9.958,14.476l-0.792,4.575l7.478,1.342l1.319-7.612l-4.496-0.807L34.615,34.473l11.039-16.048   l0,0c2.59,1.846,3.22,5.48,1.406,8.116c-0.756,1.098-1.816,1.85-2.983,2.22l-0.45,5.235c9.836,0.088,18.239-7.544,19.111-17.688   C62.829,15.242,62.834,14.19,62.759,13.157z"/>
  </g>
</svg>
