<svg xmlns="http://www.w3.org/2000/svg" xmlns:xlink="http://www.w3.org/1999/xlink" version="1.1" viewBox="0 0 64 64">
  <g id="bank" class="svg-hide">
    <path d="M35.792,13.074c2.875,0,5.206-2.321,5.206-5.184s-2.331-5.184-5.206-5.184s-5.207,2.321-5.207,5.184     S32.916,13.074,35.792,13.074z M62.708,28.032c-0.92,1.586-2.032,4.095-4.23,4.575c1.346-1.55,2.103-5.482,0.292-6.611     c-0.293-0.206-0.293-0.206-0.807-0.264c-3.133-0.241-4.868,2.795-4.289,5.989c-2.575-0.568-2.396-3.57-3.681-5.271     c-3.968-5.256-13.405-8.243-22.252-7.121c-2.32-1.118-2.823-4.047-6.357-3.956c-0.784,0.934-0.784,2.648-1.192,3.956     c-1.25-0.47-2.103-1.335-3.576-1.582c-0.736,1.802-0.035,5.234-1.59,6.725c-0.665,0.638-1.932,0.275-2.781,1.187     c-2.316,2.488-3.849,8.547-10.331,5.143C0.296,33.694,1.5,41.717,1.119,45.44c1.556,0.788,3.453,0.182,3.973-1.187     c4.076,3.986,10.61,5.525,10.331,13.847c0.814,0.612,3.557,0.612,4.371,0c0.814,0.64,1.002,1.903,1.589,2.769     c4.339,0.891,5.42-1.461,7.152-3.165c2.626-0.241,4.073,0.691,6.755,0.396c1.201,0.651,0.952,2.744,2.384,3.165     c1.996,0.141,3.464-0.244,4.768-0.791c3.775-8.242,12.706-11.678,11.033-25.345C59.355,36.935,63.987,33.755,62.708,28.032z      M40.716,25.48c-0.024-0.013-2.536-1.386-5.146-1.813c-2.61-0.426-5.431,0.076-5.458,0.081L29.8,22.061     c0.127-0.023,3.136-0.563,6.048-0.087c2.913,0.476,5.591,1.944,5.704,2.006L40.716,25.48z M56.124,31.763     c-0.826-1.021-0.228-3.961,1.35-4.153C58.385,28.586,57.667,31.553,56.124,31.763z"/>
  </g>
</svg>
