<svg xmlns="http://www.w3.org/2000/svg" xmlns:xlink="http://www.w3.org/1999/xlink" version="1.1" viewBox="0 0 64 64">
  <g id="castle" class="svg-hide">
    <path d="M12.022,18.889H9.956v-3.45H6.511v3.45H4.444v-3.45H1v33.123h14.467V15.438h-3.444L12.022,18.889L12.022,18.889z      M59.556,15.438v3.45h-2.067v-3.45h-3.445v3.45h-2.067v-3.45h-3.444v33.123H63V15.438H59.556z M42.333,23.719H38.2v-3.45h-4.133     v3.45h-4.133v-3.45H25.8v3.45h-4.133v-3.45h-4.133v26.223h11.022v-8.281c0-2.399,1.757-4.849,3.444-5.363     c1.688,0.513,3.444,2.964,3.444,5.363v8.281h11.022V20.269h-4.133V23.719z"/>
  </g>
</svg>
