<svg xmlns="http://www.w3.org/2000/svg" xmlns:xlink="http://www.w3.org/1999/xlink" version="1.1" viewBox="0 0 64 64">
  <g id="characterboost" class="svg-hide">
    <path d="M32,22.819c6.092,0,11.032-4.879,11.032-10.898S38.092,1.023,32,1.023c-6.093,0-11.033,4.879-11.033,10.898     S25.907,22.819,32,22.819z M49.544,24.907H14.456c-3.384,0-6.129,2.711-6.129,6.054v8.526c7.696,2.525,10.802,7.26,10.802,15.715     v7.775h25.74v-7.775c0-8.455,3.106-13.19,10.804-15.715v-8.526C55.673,27.617,52.928,24.907,49.544,24.907z M36.065,38.783v11.05     h-8.129v-11.05h-4.571L32,29.731l8.635,9.053L36.065,38.783L36.065,38.783z"/>
  </g>
</svg>
