<svg xmlns="http://www.w3.org/2000/svg" xmlns:xlink="http://www.w3.org/1999/xlink" version="1.1" viewBox="0 0 64 64">
  <g id="clock-alt" class="svg-hide">
    <path d="M32,9.955C19.845,9.955,9.956,19.844,9.956,32S19.845,54.044,32,54.044s22.044-9.889,22.044-22.045S44.155,9.955,32,9.955    z M44.983,39.179c-0.807,0.806-2.115,0.806-2.923,0L30.683,33.77c-0.915-0.36-1.783-1.018-1.783-1.774l0.014-0.194    c-0.026-0.26,0.006-0.544,0.064-0.833l0.955-12.406c0-1.141,0.926-2.068,2.067-2.068s2.067,0.927,2.067,2.068l0.864,11.231    l10.053,6.46C45.79,37.061,45.79,38.37,44.983,39.179z"/>
    <path d="M13.924,13.919c4.985-4.982,11.52-7.471,18.055-7.473c0.445,0,0.889,0.014,1.333,0.037l0.17-5.448l0.008-0.001    c-0.501-0.024-1.005-0.037-1.51-0.037h-0.002c-8.279,0-16.061,3.222-21.912,9.067c-1.309,1.309-2.468,2.71-3.494,4.177    l4.438,3.164C11.865,16.181,12.831,15.011,13.924,13.919z"/>
    <path d="M31.991,57.544c-5.79,0-11.575-1.956-16.289-5.863l-3.452,4.223c5.546,4.591,12.451,7.091,19.741,7.091    c3.362,0,6.639-0.54,9.743-1.563l-1.69-5.191C37.433,57.105,34.712,57.544,31.991,57.544z"/>
    <path d="M57.535,31.188c0.217,6.802-2.264,13.673-7.458,18.864c-1.384,1.383-2.89,2.568-4.479,3.568l2.882,4.633    c1.951-1.229,3.782-2.677,5.453-4.348c6.297-6.292,9.303-14.643,9.036-22.908L57.535,31.188z"/>
    <path d="M8.121,22.858l-5.04-2.045l-0.005-0.002c-3.768,9.78-2.408,21.091,4.088,29.755l4.386-3.236    C6.184,40.203,5.039,30.914,8.121,22.858z"/>
    <path d="M50.063,13.935c3.236,3.233,5.417,7.12,6.556,11.233l5.223-1.532c-1.385-4.967-4.021-9.657-7.923-13.557    c-3.727-3.724-8.237-6.38-13.156-7.824l-1.517,5.24C43.206,8.665,46.938,10.811,50.063,13.935z"/>
  </g>
</svg>
