<svg xmlns="http://www.w3.org/2000/svg" xmlns:xlink="http://www.w3.org/1999/xlink" version="1.1" viewBox="0 0 64 64">
  <g id="clock" class="svg-hide">
    <path d="M34.93,29.795l-0.864-11.231c0-1.141-0.926-2.068-2.067-2.068s-2.067,0.927-2.067,2.068L28.978,30.97     c-0.058,0.289-0.09,0.574-0.064,0.833L28.9,31.997c0,0.756,0.868,1.414,1.783,1.774l11.377,5.408     c0.807,0.806,2.115,0.806,2.923,0c0.807-0.808,0.807-2.118,0-2.924L34.93,29.795z M53.919,10.079     c-5.861-5.857-13.652-9.083-21.938-9.083h-0.002c-8.279,0-16.061,3.222-21.912,9.067C-2.03,22.157-2.033,41.825,10.06,53.914     c5.859,5.857,13.648,9.081,21.931,9.081c8.285,0,16.078-3.227,21.943-9.09C66.02,41.827,66.013,22.166,53.919,10.079z      M50.077,50.052c-4.999,4.996-11.544,7.492-18.086,7.492c-6.543,0-13.082-2.493-18.074-7.483     c-9.979-9.976-9.991-26.148,0.008-36.142c4.985-4.982,11.52-7.471,18.055-7.473c6.545,0,13.089,2.498,18.083,7.489     C60.045,23.908,60.053,40.08,50.077,50.052z"/>
  </g>
</svg>
