<svg xmlns="http://www.w3.org/2000/svg" xmlns:xlink="http://www.w3.org/1999/xlink" version="1.1" viewBox="0 0 64 64">
  <g id="download" class="svg-hide">
    <path d="M53.722,10.084C47.864,4.226,40.076,1,31.791,1C23.508,1.001,15.719,4.226,9.86,10.084     C-2.232,22.176-2.232,41.85,9.86,53.94c6.046,6.046,13.988,9.069,21.931,9.069c7.942,0,15.885-3.023,21.931-9.069     C65.814,41.849,65.814,22.176,53.722,10.084z M49.836,50.055c-9.95,9.949-26.139,9.949-36.089,0     c-9.949-9.948-9.949-26.136,0-36.086c4.821-4.82,11.229-7.474,18.045-7.474c6.817,0,13.225,2.654,18.045,7.474     C59.785,23.918,59.785,40.106,49.836,50.055z M22.756,46.581l0.049,3.263h18.712l-0.015-3.263H22.756z M37.555,17.126H26.143     v12.719H19.4l12.382,15.376l12.4-15.312l-6.628-0.064L37.555,17.126L37.555,17.126z"/>
  </g>
</svg>
