<svg xmlns="http://www.w3.org/2000/svg" xmlns:xlink="http://www.w3.org/1999/xlink" version="1.1" viewBox="0 0 64 64">
  <g id="dragon" class="svg-hide">
    <path d="M48.827,18.709c-5.126-0.405-6.56-1.017-6.56-1.017c2.364-0.726,3.097-0.187,7.542-0.628   c7.943-0.788,9.088-5.747,9.088-5.747c-1.546,1.973-6.951,2.818-11.014,2.53c-4.064-0.288-9.013,0.651-9.013,0.651   c1.517-1.188,4.675-1.316,6.428-1.551c3.726-0.498,7.387-2.097,10.046-5.786c2.163-3,0.962-6.16,0.962-6.16   C56.038,2.294,53.217,8.76,44.07,9.912c-6.415,0.808-11.627,3.425-11.627,3.425s1.256-1.234,3.177-2.976   c1.921-1.742,7.34-3.762,7.34-3.762c-5.959,0.375-12.586,4.271-15.171,6.668c-2.584,2.398-6.872,3.332-6.872,3.332   c1.098-0.165,1.801,0,1.801,0c0.323,3.407-2.244,4.128-2.244,4.128C11.31,24.196,10.35,26.62,10.35,26.62   c-0.438-1.959,1.239-2.934,1.239-2.934c-3.09,0.616-4.492,5.101-4.492,5.101c-1.553-1.535-1.993-1.079-1.993-1.079   c1.478,2.105,2.681,7.673,2.681,7.673c0.39-2.417,3.038-2.654,3.038-2.654v1.733c1.212-0.726,2.307-2.674,2.307-2.674l0.175,2.021   c1.546-0.739,1.876-2.565,1.876-2.565l-0.003,1.924c1.325-0.474,2.069-2.613,2.069-2.613l-0.174,1.761   c1.643-0.955,1.851-2.233,1.851-2.233c-0.148,0.943,0.096,1.778,0.096,1.778c2.072-2.988,4.407-3.351,4.407-3.351   c4.876,1.306,3.124,5.2,3.124,5.2c-4.117-0.97-7.04,0.607-7.04,0.607l-0.148-1.379c-1.359,0.797-2.262,2.13-2.262,2.13l-0.409-1.47   c-0.721,0.393-1.984,2.026-1.984,2.026l-0.369-1.306c-1.182,0.726-2.143,2.613-2.143,2.613l-0.222-1.524   c-3.104,3.611-1.378,5.747-1.378,5.747c-0.417-1.585,0.634-2.716,0.634-2.716s0.522,1.106,2.295,1.832s1.942,2.955,1.942,2.955   c0.981-1.836-0.635-3.654-0.635-3.654c1.16,0.315,8.128-1.94,13.988-2.569s6.136,2.039,6.136,2.039   c7.611-4.507,3.451-12.485,3.451-12.485s3.786,1.736,2.752,7.253s-6.206,6.823-6.206,6.823c-1.108,1.67-1.034,1.597-10.344,7.041   C15.3,53.115,17.522,63,17.522,63c4.956-6.229,8.747-6.299,19.425-9.595C47.626,50.109,48.99,42.662,48.99,42.662   c0.665,2.613-1.588,8.458-1.588,8.458c6.243-3.737,5.504-16.588,5.504-16.588c2.143,3.775,0.966,10.466,0.966,10.466   c7.69-16.32-4.956-22.806-4.956-22.806c4.064-0.073,8.65,4.657,8.65,4.657C55.799,20.836,51.876,18.949,48.827,18.709z    M27.093,22.432l-1.203-0.145l0.924-0.505c0,0-0.004-1.449,2.04-1.2c2.044,0.25,1.806,1.212,2.818,0.842   C31.672,21.425,30.269,22.766,27.093,22.432z"/>
  </g>
</svg>
