<svg xmlns="http://www.w3.org/2000/svg" xmlns:xlink="http://www.w3.org/1999/xlink" version="1.1" viewBox="0 0 64 64">
  <g id="emptyshield" class="svg-hide">
    <path d="M58.545,18.772c-0.15-1.38-0.947-2.607-2.169-3.35c-0.147-0.11-0.313-0.194-0.494-0.248   c-0.066-0.018-6.632-1.983-10.673-4.393c-3.886-2.32-9.952-7.731-10.632-8.34c-0.096-0.087-0.204-0.162-0.322-0.225l0.004-0.006   l-0.207-0.122c-0.086-0.05-0.175-0.09-0.266-0.123c-0.253-0.119-0.502-0.212-0.752-0.278c-0.062-0.02-0.134-0.042-0.177-0.052   c-0.827-0.193-1.33-0.227-2.371,0.033c-0.27,0.068-0.534,0.164-0.803,0.292c-0.1,0.034-0.197,0.078-0.292,0.135l-0.303,0.18   c-0.07,0.045-0.137,0.096-0.198,0.152c-0.065,0.059-6.585,5.931-10.607,8.331c-3.981,2.379-10.654,4.401-10.721,4.421   c-0.175,0.052-0.334,0.134-0.476,0.24c-1.264,0.761-2.071,2.037-2.193,3.467C4.884,18.95,4.88,19.013,4.88,19.078   c-0.006,0.054-0.01,0.119-0.01,0.172c0,0.034,0.002,0.069,0.004,0.104c0.102,23.028,17.828,42.062,26.85,42.062   s26.75-19.039,26.853-42.073c0.001-0.033,0.002-0.066,0.002-0.094c0-0.035,0.003-0.132,0-0.166   C58.58,18.976,58.568,18.871,58.545,18.772z M55.496,19.276C55.43,41.078,38.39,58.447,31.724,58.447   c-6.668,0-23.707-17.369-23.771-39.166c0-0.013,0-0.025,0-0.038c0.003-0.025,0.006-0.051,0.006-0.075   c0.03-0.501,0.306-0.952,0.747-1.225c1.261-0.391,7.268-2.315,11.196-4.659c3.912-2.334,9.859-7.587,10.958-8.57   c0.028-0.013,0.054-0.027,0.083-0.041c0.118-0.062,0.227-0.106,0.379-0.151c0.334-0.078,0.567-0.052,0.707-0.026   c0.05,0.019,0.102,0.035,0.154,0.048c0.095,0.023,0.201,0.067,0.323,0.131c0.026,0.013,0.053,0.026,0.079,0.039   c0.987,0.883,6.941,6.171,11.001,8.596c3.983,2.376,9.909,4.254,11.16,4.637c0.437,0.271,0.712,0.722,0.741,1.221   c0.001,0.029,0.004,0.058,0.008,0.087C55.496,19.26,55.496,19.269,55.496,19.276z"/>
  </g>
</svg>
