<svg xmlns="http://www.w3.org/2000/svg" xmlns:xlink="http://www.w3.org/1999/xlink" version="1.1" viewBox="0 0 64 64">
  <g id="external" class="svg-hide">
    <path d="M59.63,4.444H41.435c-1.861,0-3.369,1.469-3.369,3.28c0,1.812,1.508,3.281,3.369,3.281h8.772L30.152,30.529     c-1.58,1.537-1.58,4.03,0,5.567c0.79,0.769,1.824,1.154,2.859,1.154c1.035,0,2.069-0.385,2.859-1.154l20.391-19.852v9.196     c0,1.812,1.508,3.28,3.369,3.28S63,27.252,63,25.44V7.725C63,5.913,61.492,4.444,59.63,4.444z M56.261,52.339     c0,0.362-0.303,0.656-0.674,0.656H8.413c-0.371,0-0.674-0.294-0.674-0.656V18.222c0-0.362,0.303-0.656,0.674-0.656h17.015     l6.74-6.561H8.413C4.326,11.005,1,14.243,1,18.222v34.117c0,3.979,3.326,7.217,7.413,7.217h47.174     c4.087,0,7.413-3.238,7.413-7.217V35.936h-6.739V52.339z"/>
  </g>
</svg>
