<svg xmlns="http://www.w3.org/2000/svg" xmlns:xlink="http://www.w3.org/1999/xlink" version="1.1" viewBox="0 0 64 64">
  <g id="factions" class="svg-hide">
    <path d="M27.381,33.31c0.353-0.343,0.873-0.588,1.448-0.599c-0.243-0.202-0.479-0.387-0.701-0.55     c-0.488-0.357-0.798-0.908-0.849-1.509c-0.051-0.602,0.161-1.196,0.582-1.631l3.802-3.926l0.841-6.212     c0.089-0.655,0.483-1.23,1.063-1.551c0.58-0.321,1.278-0.35,1.883-0.078l0.852,0.382c-1.868-4.477-6.435-7.766-10.33-7.765     c0,0,0.886-0.912,5.623-0.557c-3.316-2.95-8.88-3.54-12.491-0.947C15.493,5.774,9.928,6.364,6.613,9.313     c4.735-0.354,5.623,0.557,5.623,0.557C7.109,9.869,0.811,15.566,1.048,22.173c4.086-4.071,6.057-3.571,6.057-3.571     C0.633,21.827,0.809,32.61,6.434,37.479c-1.124-7.165,0.592-7.787,0.592-7.787c0.178,3.69,0.752,8.87,4.382,13.099     c2.085,2.43,4.551,4.187,7.695,5.301c3.144-1.114,5.61-2.871,7.695-5.301c0.948-1.105,1.684-2.275,2.262-3.466     c-0.534-0.81-0.969-1.489-1.299-2.025C26.976,36.019,26.085,34.568,27.381,33.31z M19.3,39.871l-3.552-4.763l3.552-2.434     l3.767,2.434L19.3,39.871z M19.182,23.294l0.947-0.059l-0.414-3.953l1.658,6.076l-2.191,2.174l-2.19-2.174l1.658-6.076     l-0.415,3.953L19.182,23.294z M24.849,32.598l-4.699-1.266l-0.088-0.494l3.327-4.745l-1.868-5.542l4.962-0.233l-1.34-3.872     l-4.051,2.498H17.27l-4.05-2.498l-1.34,3.872l4.962,0.233l-1.868,5.542l3.326,4.745l-0.087,0.494l-4.269,1.266l-2.421-3.617     l2.567-4.271l0.474-2.891L8.853,21.68l3.458-8.177l5.569,4.482h2.604l5.568-4.482l3.459,8.177l-5.712,0.139l0.474,2.891     l2.568,4.271L24.849,32.598z M46.414,28.352l-3.93,3.416l3.93,3.415l3.931-3.415L46.414,28.352z M62.81,34.857     c-1.129,0.827-6.774,4.043-6.774,2.756c0-1.286,4.241-5.578,6.373-7.139l-4.28-4.419l-0.934-6.892l-4.824,2.166l-6.145-4.176     l-6.144,4.176l-4.824-2.166l-0.933,6.892l-4.28,4.419c2.133,1.562,6.374,5.853,6.374,7.139c0,1.287-5.645-1.929-6.773-2.756     c-1.129-0.827,5.143,8.177,5.143,8.177s0.89-4.75,4.841-2.515c2.823,1.597,6.215,10.696-2.034,5.142     c1.056,2.312,7.212,11.618,7.212,11.618l0.077-15.411l-8.762-11.925l10.105-6.218l9.77,6.218l-8.093,12.32l-0.256,11.34     l6.971-8.092c0,0-5.902,3.442-3.466-2.627c2.712-6.756,6.827-0.74,6.011,0.518C57.199,43.351,63.936,34.033,62.81,34.857z"/>
  </g>
</svg>
