<svg xmlns="http://www.w3.org/2000/svg" xmlns:xlink="http://www.w3.org/1999/xlink" version="1.1" viewBox="0 0 64 64">
  <g id="globe" class="svg-hide">
    <path d="M17.608,4.539C32.75-3.397,51.525,2.466,59.461,17.608s2.073,33.917-13.07,41.853   c-15.142,7.936-33.917,2.073-41.853-13.07C-3.397,31.249,2.466,12.474,17.608,4.539z M6.153,45.546   c2.738,5.225,6.841,9.269,11.637,11.938c-4.301-2.395-8.043-5.898-10.744-10.365l0.386-1.234l5.782,1.805l1.766-5.654l3.131-1.641   l1.765,0.551l2.611-8.359l-1.358-2.591l5.341-2.799l1.458-4.668l5.741,1.793l-4.031,2.112l-0.748,2.397l-4.378,2.294l-3.383,10.832   l1.18,2.251l6.473,2.021l3.625,6.917l7.873,2.458l2.16-1.132l1.584-5.071l-4.711-8.99l1.111-3.557l3.736-1.958l1.834-5.872   l-2.203-4.202l-7.815-1.708l-2.6-4.961l-13.344-4.167l-1.25,4.003l-6.071,3.182l-6.844-2.138c0.48-0.97,1.017-1.914,1.604-2.83   C1.979,24.745,1.103,35.91,6.153,45.546z M17.912,57.553c0.333,0.183,0.67,0.357,1.01,0.527   C18.583,57.91,18.245,57.736,17.912,57.553z M29.916,54.147l1.518-0.795l-3.5-6.679l-1.518,0.795L29.916,54.147z M33.922,61.117   c0.243-0.016,0.486-0.032,0.729-0.054C34.408,61.085,34.165,61.102,33.922,61.117z M35.321,60.991   c0.238-0.027,0.477-0.053,0.715-0.087C35.798,60.938,35.56,60.964,35.321,60.991z M24.293,60.138   c0.282,0.077,0.565,0.149,0.85,0.218C24.859,60.288,24.575,60.216,24.293,60.138z M25.635,60.472   c0.275,0.062,0.552,0.119,0.829,0.173C26.186,60.591,25.91,60.534,25.635,60.472z M26.99,60.742c0.269,0.047,0.54,0.09,0.811,0.13   C27.53,60.833,27.26,60.79,26.99,60.742z M28.36,60.949c0.264,0.033,0.527,0.064,0.792,0.09   C28.888,61.012,28.624,60.982,28.36,60.949z M29.741,61.09c0.258,0.02,0.516,0.038,0.775,0.052   C30.257,61.128,29.999,61.111,29.741,61.09z M31.129,61.166c0.253,0.008,0.506,0.014,0.759,0.015   C31.635,61.18,31.382,61.173,31.129,61.166z M32.524,61.175c0.248-0.004,0.496-0.009,0.745-0.02   C33.02,61.166,32.772,61.171,32.524,61.175z M36.72,60.796c0.233-0.038,0.466-0.075,0.699-0.119   C37.186,60.721,36.953,60.758,36.72,60.796z M38.117,60.531c0.227-0.049,0.454-0.095,0.681-0.15   C38.572,60.436,38.345,60.483,38.117,60.531z M39.51,60.196c0.221-0.059,0.442-0.115,0.662-0.179   C39.952,60.081,39.731,60.137,39.51,60.196z M40.898,59.787c0.213-0.068,0.426-0.132,0.638-0.206   C41.324,59.655,41.11,59.719,40.898,59.787z M42.285,59.302c0.201-0.076,0.403-0.147,0.603-0.228   C42.688,59.155,42.486,59.226,42.285,59.302z M43.688,58.73c0.18-0.079,0.36-0.152,0.539-0.234   C44.049,58.578,43.868,58.651,43.688,58.73z M48.058,56.366c0.2-0.132,0.393-0.271,0.589-0.407   C48.451,56.095,48.259,56.234,48.058,56.366z M49.238,55.547c0.21-0.153,0.412-0.313,0.616-0.47   C49.649,55.235,49.447,55.394,49.238,55.547z M50.363,54.682c0.215-0.174,0.422-0.353,0.631-0.532   C50.786,54.328,50.578,54.508,50.363,54.682z M51.434,53.772c0.218-0.194,0.429-0.395,0.641-0.595   C51.863,53.377,51.652,53.577,51.434,53.772z M52.45,52.821c0.22-0.216,0.432-0.436,0.644-0.658   C52.882,52.384,52.669,52.605,52.45,52.821z M53.411,51.83c0.219-0.237,0.431-0.478,0.642-0.721   C53.843,51.352,53.63,51.593,53.411,51.83z M54.317,50.803c0.218-0.259,0.428-0.522,0.636-0.787   C54.746,50.281,54.535,50.544,54.317,50.803z M55.167,49.743c0.215-0.281,0.423-0.565,0.626-0.853   C55.59,49.178,55.382,49.462,55.167,49.743z M55.962,48.652c0.21-0.303,0.413-0.61,0.611-0.92   C56.375,48.042,56.171,48.349,55.962,48.652z M38.068,3.458c-1.005-0.214-2.021-0.373-3.046-0.481L23.543,8.993l8.274,2.584   l3.598-1.885l3.888,1.214l2.093-1.097L38.068,3.458z M34.955,2.971c-0.558-0.057-1.118-0.096-1.68-0.121   C33.838,2.875,34.398,2.914,34.955,2.971z M32.77,2.83c-0.235-0.006-0.471-0.01-0.707-0.01C32.299,2.82,32.535,2.824,32.77,2.83z    M31.522,2.825c-0.287,0.005-0.574,0.011-0.861,0.025C30.948,2.836,31.235,2.829,31.522,2.825z M29.76,2.902   c-0.207,0.016-0.415,0.038-0.622,0.058C29.346,2.939,29.553,2.917,29.76,2.902z M28.497,3.028c-0.202,0.024-0.405,0.05-0.607,0.079   C28.093,3.079,28.295,3.053,28.497,3.028z M27.151,3.224c-0.165,0.028-0.331,0.052-0.497,0.083   C26.82,3.276,26.985,3.252,27.151,3.224z M25.498,3.549c-0.161,0.037-0.321,0.078-0.481,0.118   C25.177,3.627,25.337,3.586,25.498,3.549z M24.216,3.876C24.058,3.92,23.9,3.964,23.743,4.01   C23.901,3.964,24.059,3.92,24.216,3.876z M22.749,4.324c-0.08,0.027-0.161,0.051-0.241,0.078   C22.589,4.375,22.669,4.351,22.749,4.324z M16.104,7.533c-0.145,0.094-0.288,0.189-0.431,0.284   C15.816,7.721,15.96,7.626,16.104,7.533z M14.964,8.312c-0.134,0.096-0.27,0.191-0.402,0.289   C14.694,8.503,14.829,8.408,14.964,8.312z M13.675,9.288c-0.156,0.126-0.308,0.254-0.461,0.383   C13.367,9.543,13.519,9.414,13.675,9.288z M12.581,10.215c-0.162,0.144-0.319,0.292-0.477,0.439   C12.261,10.507,12.419,10.359,12.581,10.215z M11.649,11.086c-0.169,0.164-0.337,0.331-0.501,0.499   C11.312,11.416,11.48,11.251,11.649,11.086z M10.781,11.968c-0.177,0.188-0.354,0.374-0.526,0.566   C10.427,12.343,10.604,12.156,10.781,11.968z M10.174,12.629c-0.436,0.491-0.852,0.996-1.251,1.512   C9.322,13.625,9.739,13.12,10.174,12.629z M8.787,14.316c-0.188,0.248-0.37,0.499-0.55,0.751   C8.417,14.814,8.599,14.563,8.787,14.316z M8.079,15.291c-0.183,0.262-0.362,0.527-0.536,0.795   C7.716,15.818,7.896,15.554,8.079,15.291z M18.416,6.174c0.013-0.007,0.025-0.014,0.038-0.021c0.01-0.005,0.02-0.01,0.031-0.015   c-0.01,0.005-0.021,0.01-0.031,0.015C18.441,6.16,18.429,6.168,18.416,6.174z M16.872,7.053c0.13-0.079,0.259-0.159,0.391-0.236   C17.131,6.894,17.002,6.974,16.872,7.053z M21.306,4.85c-0.128,0.051-0.256,0.105-0.384,0.158   C21.05,4.955,21.177,4.901,21.306,4.85z M20.038,5.388c-0.127,0.057-0.254,0.114-0.381,0.173   C19.784,5.502,19.911,5.445,20.038,5.388z M39.534,3.812c0.442,0.119,0.881,0.246,1.316,0.385   C40.415,4.058,39.976,3.931,39.534,3.812z M38.069,3.458c0.467,0.099,0.932,0.211,1.393,0.333   C39.001,3.669,38.536,3.558,38.069,3.458z M40.868,4.203c0.91,0.291,1.806,0.626,2.685,1.004l2.915,5.562l7.872,2.458   C50.732,8.926,46.028,5.849,40.868,4.203z M57.077,17.08c0.267,0.449,0.524,0.906,0.769,1.374   C57.601,17.986,57.344,17.529,57.077,17.08z M54.341,13.229c0.646,0.77,1.256,1.58,1.828,2.426   C55.598,14.808,54.987,13.999,54.341,13.229z M56.226,15.736c0.254,0.378,0.497,0.765,0.735,1.158   C56.723,16.501,56.479,16.114,56.226,15.736z M58.414,19.607c0.172,0.372,0.337,0.746,0.495,1.121l-7.016,14.875l2.203,4.203   l5.462,1.766c-0.145,0.418-0.3,0.832-0.464,1.243C61.991,35.549,61.968,27.169,58.414,19.607z M56.7,47.532   c0.204-0.325,0.401-0.654,0.592-0.987C57.101,46.878,56.904,47.207,56.7,47.532z M57.383,46.386   c0.196-0.348,0.385-0.698,0.567-1.053C57.769,45.688,57.579,46.039,57.383,46.386z M58.01,45.216   c0.188-0.37,0.367-0.743,0.539-1.121C58.377,44.473,58.197,44.846,58.01,45.216z M58.58,44.026   c0.177-0.392,0.346-0.788,0.505-1.187C58.926,43.238,58.757,43.634,58.58,44.026z M45.767,57.723   c-0.075,0.041-0.147,0.084-0.222,0.123c-0.079,0.041-0.16,0.078-0.239,0.118c0.079-0.041,0.16-0.076,0.239-0.118   C45.621,57.807,45.692,57.764,45.767,57.723z M47.355,56.805c-0.177,0.109-0.35,0.223-0.53,0.329   C47.006,57.028,47.178,56.914,47.355,56.805z M23.844,60.01c-0.292-0.085-0.584-0.173-0.873-0.267   C23.261,59.837,23.552,59.925,23.844,60.01z M19.138,58.19c0.318,0.156,0.639,0.303,0.962,0.447   C19.777,58.493,19.456,58.346,19.138,58.19z M20.392,58.768c0.306,0.132,0.616,0.257,0.926,0.38   C21.008,59.025,20.698,58.9,20.392,58.768z M21.67,59.286c0.297,0.112,0.597,0.218,0.897,0.32   C22.267,59.503,21.967,59.398,21.67,59.286z"/>
  </g>
</svg>
