<svg xmlns="http://www.w3.org/2000/svg" xmlns:xlink="http://www.w3.org/1999/xlink" version="1.1" viewBox="0 0 64 64">
  <g id="group" class="svg-hide">
    <path d="M47.911,38.353c0-2.317-1.871-4.193-4.179-4.193h-23.88c-2.309,0-4.179,1.876-4.179,4.193v5.901     c5.247,1.75,7.365,5.029,7.365,10.884v0.238v3.045h17.509v-3.045v-0.238c0-5.854,2.117-9.133,7.364-10.884L47.911,38.353z      M31.813,29.488c4.154,0,7.521-3.379,7.521-7.546c0-4.169-3.367-7.548-7.521-7.548c-4.155,0-7.523,3.38-7.523,7.548     C24.29,26.109,27.658,29.488,31.813,29.488z M17.037,21.401c0.932,0,1.821-0.178,2.645-0.489     c0.398-3.397,2.172-6.427,4.742-8.456c-0.654-3.499-3.709-6.149-7.387-6.149c-4.155,0-7.523,3.379-7.523,7.548     C9.514,18.022,12.882,21.401,17.037,21.401z M10.299,47.656v-9.303c0-4.913,4.656-8.236,9.552-8.236h2.311     c-0.85-1.425-1.514-2.721-1.957-4.043H5.076c-2.309,0-4.179,1.875-4.179,4.193v5.901c5.247,1.75,6.716,5.029,6.716,10.884v0.238     v3.045h9.225c-0.744-0.723-1.735-1.191-2.973-1.604L10.299,47.656z M58.508,26.073H43.404c-0.444,1.328-1.103,2.634-1.943,4.043     h2.271c4.897,0,8.209,3.324,8.209,8.236v9.304l-2.895,1.073c-1.238,0.413-2.102,0.88-2.704,1.604h9.629v-3.045V47.05     c0-5.854,1.469-9.133,6.716-10.884v-5.901C62.687,27.949,60.816,26.073,58.508,26.073z M43.956,20.917     c0.821,0.308,1.705,0.485,2.633,0.485c4.155,0,7.521-3.379,7.521-7.546c0-4.169-3.367-7.548-7.521-7.548     c-3.668,0-6.719,2.635-7.385,6.12C41.794,14.453,43.578,17.491,43.956,20.917z"/>
  </g>
</svg>
