<svg xmlns="http://www.w3.org/2000/svg" xmlns:xlink="http://www.w3.org/1999/xlink" version="1.1" viewBox="0 0 64 64">
  <g id="horde" class="svg-hide">
    <path d="M31.918,12.877c13.893,3.155,12.677,15.606,8.909,20.167c-3.77,4.559-5.351,10.961-5.351,10.961   c-1.666,10.96,0.262,19.555,0.262,19.555c2.631-3.77,7.279-13.853,7.279-13.853c-2.891,1.053-4.293,0-4.471-2.722   c-0.176-2.718,1.58-7.451,4.471-9.646c2.892-2.191,6.666,1.318,6.666,1.318c2.455-2.37,8.156-12.629,8.156-12.629   s0.64-0.263-3.511,2.718c-4.144,2.984-6.134,1.93-6.134,1.93c-1.142-4.998,6.134-9.821,6.134-9.821   c-0.086-0.877-6.4-8.068-6.4-8.068s-1.049-6.4-1.756-6.926c-0.698-0.528-4.995,1.927-4.995,1.927l-9.26-7.454l-9.152,7.454   c0,0-4.296-2.455-4.994-1.927c-0.704,0.526-1.759,6.926-1.759,6.926s-6.311,7.19-6.399,8.068c0,0,7.278,4.823,6.135,9.821   c0,0-1.99,1.054-6.135-1.93c-4.149-2.982-3.51-2.718-3.51-2.718s5.703,10.259,8.155,12.629c0,0,3.775-3.508,6.667-1.318   c2.892,2.195,4.647,6.929,4.473,9.646c-0.179,2.722-1.581,3.774-4.473,2.722c0,0,4.647,10.083,7.28,13.853   c0,0,1.927-8.595,0.263-19.555c0,0-1.582-6.401-5.353-10.961c-3.77-4.562-5.249-17.012,8.645-20.167H31.918z"/>
    <path d="M31.926,30.281c0.223-0.043,0.564-0.306,0.564-0.306l5.352-6.71c0,0-3.287-4.517-4.475-5.962   c-1.182-1.447-1.441-1.183-1.441-1.183h0.044c0,0-0.256-0.264-1.438,1.183c-1.186,1.445-4.476,5.962-4.476,5.962l5.351,6.71   c0,0,0.339,0.263,0.562,0.306"/>
  </g>
</svg>
