<svg xmlns="http://www.w3.org/2000/svg" xmlns:xlink="http://www.w3.org/1999/xlink" version="1.1" viewBox="0 0 64 64">
  <g id="ilvl" class="svg-hide">
    <path d="M50.578,44.609l6.803-6.803c0.137-0.137,0.062-0.37-0.129-0.402l-3.975-0.661c-0.076-0.013-0.153,0.012-0.207,0.066    l-3.466,3.466l-6.518-6.472l-3.97,3.97l6.366,6.247l-0.473,0.473l-6.244-6.368l-3.766,3.766l6.518,6.472l-3.687,3.687    c-0.054,0.054-0.079,0.131-0.066,0.207l0.661,3.975c0.032,0.191,0.266,0.266,0.402,0.129l6.929-6.929l10.997,9.26l0,3.841    c0,0.229,0.185,0.414,0.414,0.414h6.353c0.229,0,0.414-0.185,0.414-0.414l0-6.353c0-0.229-0.185-0.414-0.414-0.414h-3.55    L50.578,44.609z"/>
    <polygon points="21.318,28.139 25.159,24.297 9.882,8.703 25.403,24.054 29.405,20.052 11.998,2.67 2.08,1.059 3.77,10.614   "/>
    <path d="M61.887,1.074l-9.555,1.69L14.584,40.512l-3.687-3.687c-0.054-0.054-0.131-0.079-0.207-0.066   L6.715,37.42c-0.191,0.032-0.266,0.266-0.129,0.402l6.929,6.929l-9.26,10.997l-3.841,0C0.185,55.749,0,55.934,0,56.163l0,6.353   c0,0.229,0.185,0.414,0.414,0.414l6.353,0c0.229,0,0.414-0.185,0.414-0.414v-3.55l11.155-9.393l6.803,6.803   c0.137,0.137,0.37,0.062,0.402-0.129l0.661-3.975c0.013-0.076-0.012-0.153-0.066-0.207l-3.466-3.466l37.606-37.606L61.887,1.074z    M18.926,44.476l-0.473-0.473L54.242,8.877L18.926,44.476z"/>
  </g>
</svg>
