<svg xmlns="http://www.w3.org/2000/svg" xmlns:xlink="http://www.w3.org/1999/xlink" version="1.1" viewBox="0 0 64 64">
  <g id="journal" class="svg-hide">
    <path d="M51.13,6.75V1.023H9.269v1.093v55.133v1.093l4.6,4.634H55.73V6.75H51.13z M19.009,9.969h1.163   c0.402-2.063,2.205-3.62,4.371-3.62H35.18c2.166,0,3.969,1.557,4.371,3.62h1.163c2.461,0,4.456,1.848,4.456,4.127   s-1.995,4.127-4.456,4.127H19.009c-2.461,0-4.456-1.847-4.456-4.127C14.553,11.817,16.548,9.969,19.009,9.969z M42.774,22.325   c0,0.959-0.772,1.738-1.725,1.738h-22.04c-0.953,0-1.725-0.779-1.725-1.738c0-0.96,0.772-1.738,1.725-1.738h22.04   C42.002,20.587,42.774,21.365,42.774,22.325z M53.56,60.79H14.769l-3.328-3.353v-0.188h39.69V8.937h2.429L53.56,60.79z"/>
  </g>
</svg>
