<svg xmlns="http://www.w3.org/2000/svg" xmlns:xlink="http://www.w3.org/1999/xlink" version="1.1" viewBox="0 0 64 64">
  <g id="menu" class="svg-hide">
    <path d="M51.01,32.301c0.065-0.065,0.098-0.155,0.097-0.245c0.002-0.088-0.035-0.176-0.097-0.241l-2.544-2.647     c-1.26-10.664-9.37-19.103-19.62-20.424l-2.559-2.662c-0.062-0.063-0.148-0.101-0.235-0.098c-0.083-0.004-0.169,0.034-0.232,0.1     l-2.555,2.66C13.021,10.058,4.913,18.49,3.643,29.142l-2.558,2.662c-0.063,0.065-0.096,0.155-0.096,0.245     c-0.003,0.086,0.036,0.176,0.096,0.241l2.555,2.656c1.258,10.668,9.372,19.113,19.625,20.427l2.546,2.647     c0.06,0.063,0.146,0.101,0.233,0.099c0.083,0.002,0.17-0.036,0.234-0.101l2.541-2.641c10.262-1.307,18.388-9.755,19.648-20.429     L51.01,32.301z M29.942,50.777l-3.899-2.243l-3.892,2.241C15.106,49.19,9.565,43.421,8.055,36.089l2.15-4.04l-2.146-4.035     c1.517-7.334,7.064-13.103,14.112-14.676l3.88,2.234l3.881-2.234c7.049,1.573,12.594,7.338,14.112,14.668l-2.154,4.05     l2.155,4.052C42.528,43.437,36.987,49.2,29.942,50.777z M31.407,23.069c0,0.829-1.996,13.026-1.996,13.026l-3.36-13.901     L22.789,36.38c0,0-2.014-9.047-2.312-12.358c-0.077-0.834,0.235-2.526,0.235-2.526H13.81c0,0,1.204,0.75,1.664,2.825     c0.241,1.1,3.867,15.497,4.02,18.27c0.051,0.961-1.296,1.981-1.296,1.981h7.073c0,0-0.439-0.796-0.439-1.902     c0-1.112,1.327-7.227,1.327-7.227s1.097,5.908,1.097,7.149s-0.225,1.981-0.225,1.981h6.773c0,0-0.838-1.097-0.838-2.429     c0-0.857,2.223-14.406,2.869-17.097c0.501-2.094,2.052-3.55,2.052-3.55h-7.255C30.632,21.495,31.407,22.24,31.407,23.069z      M44.266,10.561c2.715,2.519,5.447,5.914,5.447,5.914h13.225v-5.914L44.266,10.561z M44.266,53.556h18.671v-5.912H49.713     C49.713,47.643,46.981,51.039,44.266,53.556z M56.704,32.246l-2.886,3.449h9.119v-7.271h-9.119L56.704,32.246z"/>
  </g>
</svg>
