<svg xmlns="http://www.w3.org/2000/svg" xmlns:xlink="http://www.w3.org/1999/xlink" version="1.1" viewBox="0 0 64 64">
  <g id="mouse" class="svg-hide">
    <path d="M36.296,12.408c0.003-0.192-0.002-0.575-0.002-0.575l0.003-7.929c0,0,0.103-1.128-1.061-1.975   c-0.854-0.763-3.849-0.905-3.849-0.905H12.364v3.958h16.023c0,0,1.671-0.148,2.403,0.239c0.807,0.428,0.61,1.488,0.61,1.488v5.118   c0,0-0.013,0.389-0.014,0.582c-16.002,0-15.953,10.844-15.953,10.844v28.736c0,0-0.738,10.843,17.758,10.843   c18.445,0,18.445-10.301,18.445-10.301V23.252C51.636,23.252,51.636,12.408,36.296,12.408z M36.418,21.641v8.864   c0,0-0.087,1.964-2.578,1.964c-2.651,0-2.562-1.898-2.562-1.898v-8.996c0,0-0.057-2.055,2.53-2.055   C36.677,19.519,36.418,21.641,36.418,21.641z"/>
  </g>
</svg>
