<svg xmlns="http://www.w3.org/2000/svg" xmlns:xlink="http://www.w3.org/1999/xlink" version="1.1" viewBox="0 0 64 64">
  <g id="objective" class="svg-hide">
    <path d="M62.987,9.283c-0.001-0.559-0.121-1.118-0.222-1.988c-3.664,3.795-7.679,4.039-12.058,2.507     c-2.308-0.807-4.644-1.542-6.999-2.196c-3.509-0.975-6.568,0.008-9.171,2.449c-0.467,0.438-0.935,1.164-0.941,1.762     c-0.068,6.227-0.042,12.455-0.042,19.078c5.142-3.828,7.741-4.195,13.434-2.167c1.488,0.53,2.949,1.27,4.484,1.501     c2.148,0.321,4.413,0.613,6.524,0.274c3.459-0.556,4.995-2.766,4.999-6.262C63,19.256,63.002,14.27,62.987,9.283z M44.38,39.688     c-3.537-0.054-7.076-0.032-10.685-0.032c0,1.324,0,2.384,0,3.681c2.657,0,5.174-0.034,7.689,0.023     c0.662,0.015,1.641,0.088,1.925,0.508c2.057,3.035,3.973,6.166,6.033,9.424c-13.949,0-27.502,0-41.409,0     c1.911-3.023,3.725-5.692,5.31-8.49c0.711-1.254,1.561-1.524,2.855-1.484c2.582,0.079,5.168,0.023,7.813,0.023     c0-1.4,0-2.459,0-3.705c-2.921,0-5.687,0.142-8.432-0.044c-2.287-0.155-3.715,0.49-4.936,2.585     c-2.889,4.96-6.09,9.737-9.316,14.825c18.413,0,36.443,0,54.834,0c-3.64-5.731-7.093-11.184-10.583-16.614     C45.26,40.049,44.756,39.693,44.38,39.688z M31.052,44.096c0-11.23,0.007-22.46-0.002-33.689     c-0.003-3.327-1.141-4.09-4.272-2.845c0,13.298,0,26.622,0,40.076C31.052,48.021,31.052,48.021,31.052,44.096z"/>
  </g>
</svg>
