<svg xmlns="http://www.w3.org/2000/svg" xmlns:xlink="http://www.w3.org/1999/xlink" version="1.1" viewBox="0 0 64 64">
  <g id="profession" class="svg-hide">
    <path d="M47.066,26.965l7.133,1.888l8.738-8.632l-1.267-4.669l-6.454,6.375l-7.209-1.909l-1.932-7.121   l6.454-6.375l-4.727-1.251l-8.738,8.632l1.911,7.046l-5.451,5.385L23.171,14.132l3.56-3.517l9.362-4.753L21.725,5.67l-3.56,3.517   l-1.356-1.34l-5.595,5.527l1.356,1.339l-3.984,3.935L5.28,19.57l-4.239,4.186l7.441,7.35l4.239-4.186l0.933-3.266l-0.062-0.061   l3.984-3.935L29.929,31.86l-5.24,5.175l-7.133-1.888l-8.739,8.632l1.267,4.669l6.454-6.375l7.21,1.908l1.932,7.121l-6.455,6.375   l4.727,1.251l8.738-8.632l-1.912-7.046l5.24-5.175L52.234,53.89l5.595-5.526L41.615,32.349L47.066,26.965z"/>
  </g>
</svg>
