<svg xmlns="http://www.w3.org/2000/svg" xmlns:xlink="http://www.w3.org/1999/xlink" version="1.1" viewBox="0 0 64 64">
  <g id="quest-track" class="svg-hide">
    <path d="M16.045,47.915c-0.052,0.003-0.106,0.002-0.158,0c-6.135-0.212-8.025,8.391-4.597,12.738     c1.949,2.471,5.965,3.159,8.481,0.961c1.443-1.261,2.354-3.61,2.537-5.928C22.659,51.228,20.388,47.712,16.045,47.915z      M14.698,12.666c2.496-0.481,4.949,1.673,5.152,3.605c0.181,1.719-0.766,2.787-1.665,3.925c-2.383,3.019-5.889,5.943-7.292,9.533     c-1.342,3.436-0.596,8.614,1.269,11.215c1.004,1.401,3.419,2.983,5.786,1.763c0.355-0.183,0.661-0.423,0.932-0.699     c-1.433-6.407,0.308-13.4,5.233-18.378c2.18-2.204,4.787-3.818,7.629-4.776c0.072-1.763-0.155-3.526-0.479-4.907     c-0.666-2.84-1.922-4.97-3.25-6.649c-2.861-3.621-7.829-6.59-13.553-6.248c-0.849,0.05-1.793-0.012-2.775,0.16     C7.177,1.998,2.597,6.211,1.382,10.263c-0.428,1.427-0.507,3.68,0.079,5.127c0.671,1.657,3.317,3.846,6.103,3.044     C10.847,17.489,11.292,13.322,14.698,12.666z M51.876,46.321c4.075-6.095,3.423-14.415-1.958-19.796     c-3.063-3.063-7.077-4.595-11.09-4.595c-4.014,0-8.027,1.531-11.09,4.594c-6.125,6.126-6.125,16.058,0,22.184     c3.061,3.062,7.075,4.593,11.087,4.593c3.04,0,6.079-0.878,8.706-2.634l10.8,10.802l4.345-4.346L51.876,46.321z M45.131,43.92     c-1.684,1.684-3.923,2.611-6.304,2.611s-4.619-0.927-6.303-2.611c-3.475-3.476-3.475-9.132,0-12.609     c1.684-1.684,3.922-2.612,6.303-2.612s4.62,0.927,6.304,2.612C48.606,34.788,48.606,40.444,45.131,43.92z"/>
  </g>
</svg>
