<svg xmlns="http://www.w3.org/2000/svg" xmlns:xlink="http://www.w3.org/1999/xlink" version="1.1" viewBox="0 0 64 64">
  <g id="quest-progress" class="svg-hide">
    <path d="M37.991,53.163c-0.04-0.233-0.088-0.461-0.146-0.683c-0.001-0.006-0.003-0.011-0.005-0.017     c-0.056-0.216-0.12-0.427-0.193-0.632c-0.004-0.012-0.009-0.024-0.014-0.036c-0.071-0.197-0.148-0.389-0.234-0.574     c-0.009-0.02-0.02-0.039-0.029-0.059c-0.083-0.175-0.172-0.347-0.269-0.51c-0.017-0.028-0.035-0.054-0.052-0.082     c-0.093-0.152-0.19-0.301-0.295-0.443c-0.027-0.036-0.057-0.069-0.084-0.105c-0.101-0.129-0.203-0.255-0.314-0.374     c-0.039-0.042-0.082-0.079-0.122-0.119c-0.106-0.106-0.212-0.212-0.326-0.308c-0.053-0.045-0.111-0.084-0.166-0.127     c-0.108-0.084-0.215-0.17-0.331-0.245c-0.069-0.046-0.145-0.084-0.217-0.127c-0.109-0.064-0.215-0.131-0.329-0.187     c-0.088-0.044-0.182-0.078-0.273-0.117c-0.107-0.046-0.211-0.095-0.322-0.134c-0.109-0.038-0.224-0.066-0.337-0.098     c-0.102-0.029-0.2-0.063-0.306-0.087c-0.139-0.031-0.286-0.05-0.431-0.072c-0.087-0.013-0.17-0.033-0.26-0.042     c-0.238-0.026-0.484-0.039-0.738-0.039c-0.116,0-0.234,0.003-0.354,0.008c-0.024,0.001-0.047,0.001-0.071,0.001     c-0.029,0-0.058,0-0.087-0.001c-0.074-0.003-0.148-0.004-0.221-0.004c-0.332,0-0.646,0.035-0.951,0.085     c-0.078,0.013-0.155,0.027-0.232,0.043c-0.279,0.058-0.55,0.131-0.806,0.229c-0.018,0.007-0.037,0.011-0.055,0.018     c-0.27,0.106-0.523,0.239-0.766,0.385c-0.065,0.039-0.128,0.08-0.191,0.121c-0.208,0.137-0.408,0.285-0.595,0.449     c-0.029,0.025-0.06,0.047-0.089,0.072c-0.205,0.186-0.394,0.391-0.573,0.607c-0.053,0.064-0.104,0.13-0.155,0.196     c-0.141,0.183-0.273,0.373-0.395,0.572c-0.033,0.053-0.07,0.103-0.101,0.158c-0.139,0.239-0.263,0.489-0.377,0.746     c-0.04,0.091-0.077,0.183-0.114,0.275c-0.08,0.198-0.152,0.401-0.217,0.607c-0.027,0.087-0.058,0.171-0.083,0.259     c-0.075,0.267-0.137,0.539-0.188,0.814c-0.021,0.112-0.037,0.224-0.054,0.336c-0.03,0.2-0.054,0.401-0.071,0.603     c-0.01,0.109-0.022,0.218-0.028,0.327c-0.014,0.251-0.019,0.503-0.013,0.754c0.002,0,0.004,0.001,0.005,0.001     c0.041,1.833,0.584,3.66,1.681,5.051c1.141,1.446,2.993,2.28,4.836,2.28c1.299,0,2.594-0.414,3.632-1.321     c1.441-1.257,2.351-3.601,2.533-5.913c0.008-0.101,0.008-0.199,0.013-0.299l0,0c0-0.001,0-0.001,0-0.002     C38.153,54.62,38.112,53.869,37.991,53.163C37.992,53.164,37.991,53.164,37.991,53.163z M47.042,14.073     c-0.665-2.833-1.919-4.957-3.245-6.633c-2.708-3.421-7.301-6.26-12.635-6.259c-0.297,0-0.597,0.008-0.899,0.027     c-0.848,0.05-1.791-0.011-2.771,0.159c-4.502,0.786-9.076,4.989-10.288,9.03c-0.428,1.423-0.506,3.671,0.079,5.114     c0.572,1.41,2.579,3.206,4.884,3.206c0.396,0,0.802-0.053,1.21-0.17c3.277-0.941,3.722-5.098,7.123-5.753     c0.24-0.046,0.48-0.068,0.717-0.068c2.226,0,4.244,1.922,4.427,3.664c0.181,1.715-0.764,2.78-1.662,3.915     c-2.38,3.011-5.88,5.928-7.281,9.509c-1.34,3.428-0.595,8.592,1.267,11.187c0.751,1.047,2.291,2.194,4.009,2.194     c0.577,0,1.174-0.13,1.768-0.436c3.079-1.587,2.7-6.997,4.353-10.228c1.977-3.865,6.705-5.18,8.627-9.669     C47.886,20.15,47.614,16.513,47.042,14.073z M31.163-0.392L31.163-0.392v1.573V-0.392z"/>
    <path d="M53.109,46.384c-0.875,1.281-1.872,2.504-3.008,3.642l4.967,2.681c1.306-1.451,2.448-2.996,3.43-4.613L53.109,46.384z"/>
    <path d="M62.785,35.53c0.11-0.975,0.176-1.954,0.194-2.934h-5.44c-0.02,0.851-0.089,1.7-0.193,2.546L62.785,35.53z"/>
    <path d="M56.699,38.441c-0.347,1.339-0.796,2.654-1.364,3.933l5.463,1.088c0.546-1.377,0.989-2.785,1.329-4.214L56.699,38.441z"/>
    <path d="M46.165,53.249c-1.593,1.061-3.276,1.931-5.02,2.598c-0.178,2.229-0.818,4.467-1.828,6.277      c4.137-0.997,8.016-2.839,11.43-5.438L46.165,53.249z"/>
    <path d="M13.917,50.061c-9.979-9.976-9.991-26.148,0.008-36.142c0.074-0.074,0.154-0.136,0.228-0.209    c0.077-1.999,0.557-5.604,2.701-8.774c-2.456,1.374-4.741,3.085-6.786,5.128C-2.03,22.157-2.033,41.825,10.06,53.914    c3.931,3.929,8.732,6.667,13.966,8.047c-1.086-1.863-1.634-4.078-1.68-6.299C19.28,54.415,16.406,52.549,13.917,50.061z"/>
  </g>
</svg>
