<svg xmlns="http://www.w3.org/2000/svg" xmlns:xlink="http://www.w3.org/1999/xlink" version="1.1" viewBox="0 0 64 64">
  <g id="role-tank" class="svg-hide">
    <path d="M31.725,61.416c-9.022,0-26.748-19.035-26.85-42.062c-0.003-0.035-0.005-0.07-0.005-0.104   c0-0.054,0.004-0.119,0.01-0.172c0-0.065,0.004-0.128,0.012-0.193c0.122-1.43,0.93-2.706,2.193-3.467   c0.142-0.106,0.301-0.187,0.476-0.24c0.067-0.02,6.74-2.043,10.721-4.421c4.022-2.399,10.542-8.272,10.607-8.331   c0.061-0.056,0.128-0.107,0.198-0.152l0.302-0.18c0.094-0.057,0.192-0.101,0.292-0.135c0.269-0.128,0.533-0.224,0.803-0.292   c1.041-0.259,1.544-0.226,2.371-0.033c0.043,0.01,0.115,0.032,0.177,0.052c0.25,0.066,0.499,0.159,0.752,0.278   c0.091,0.033,0.18,0.073,0.267,0.123l0.207,0.122l-0.004,0.006c0.118,0.062,0.226,0.138,0.322,0.225   c0.68,0.609,6.746,6.02,10.632,8.34c4.041,2.41,10.607,4.375,10.673,4.393c0.181,0.054,0.347,0.138,0.494,0.248   c1.223,0.743,2.02,1.969,2.169,3.35c0.023,0.1,0.035,0.204,0.035,0.31c0.004,0.035,0,0.132,0,0.167   c0,0.029-0.001,0.061-0.002,0.094C58.474,42.377,40.747,61.416,31.725,61.416z"/>
  </g>
</svg>
