<svg xmlns="http://www.w3.org/2000/svg" xmlns:xlink="http://www.w3.org/1999/xlink" version="1.1" viewBox="0 0 64 64">
  <g id="skill-button" class="svg-hide">
    <path d="M56.743,1.023L7.236,1.024c-3.407,0-6.182,2.775-6.182,6.182L1.042,56.724c0.012,3.419,2.776,6.182,6.195,6.195     l49.519-0.013c3.407,0,6.182-2.775,6.182-6.182V7.218C62.937,3.787,60.174,1.023,56.743,1.023z M57.793,57.958H5.403V5.568h52.39     V57.958z M12.39,18.02l11.006,11.449l5.66,5.943l4.317,4.293l0.496,0.584l0.966-0.279l0.846,0.136l-0.087,0.725l1.612,1.285     l-1.768,1.376l-1.817,0.441l-0.172,1.154l0.639,0.884l1.596-0.27l1.473-0.344l1.203-1.154l1.228-1.178l4.644,5.239l3.852,3.337     l0.969,0.754l0.108,1.347l2.101-1.078l1.051-2.075l-1.455-0.107l-0.727-0.944l-3.338-3.901l-5.216-4.611l2.382-2.431l0.467-2.284     L44.5,35.55l-0.884-0.638l-1.154,0.171l-0.418,1.842l-1.424,1.768l-1.237-1.612l-0.726,0.087l-0.13-0.753l0.273-1.059     l-1.42-1.331l-2.936-3.061l-6.122-5.743L16.639,13.986l-1.562-1.562l-2.073-0.027l-2.122,0.021v2.047l0.076,2.025L12.39,18.02z"/>
  </g>
</svg>
