<svg xmlns="http://www.w3.org/2000/svg" xmlns:xlink="http://www.w3.org/1999/xlink" version="1.1" viewBox="0 0 64 64">
  <g id="skull" class="svg-hide">
    <path d="M58.03,17.563C50.228,4.722,35.279,4.692,32.616,4.793l-0.833-0.006   c-2.661-0.14-17.609-0.325-25.596,12.401c-8.79,14.004-3.205,22.616-3.205,22.616s1.886,3.137,4.277,5.581   c1.964,2.007,3.827,3.399,4.34,4.241c1.407,2.307-0.025,6.045,1.202,7.063c0.83,0.689,2.293-1.895,3.655-2.506   c3.374-1.514,1.51,6.369,4.151,6.388c2.641,0.019,2.698-7.785,6.597-6.311c2.077,0.785,2.458,5.536,4.339,6.284l0.505,0.004   c1.891-0.721,2.341-5.466,4.429-6.221c3.92-1.418,3.863,6.386,6.505,6.405c2.642,0.019,0.891-7.89,4.243-6.328   c1.353,0.63,2.778,3.235,3.619,2.558c1.242-1-0.136-4.758,1.304-7.045c0.525-0.834,2.409-2.199,4.401-4.177   c2.426-2.409,4.357-5.518,4.357-5.518S66.617,31.692,58.03,17.563z M23.739,37.967c-3.117,2.984-7.994,3.038-10.893,0.122   c-2.899-2.916-2.721-7.699,0.396-10.683c3.117-2.983,7.995-3.038,10.893-0.122C27.034,30.2,26.856,34.983,23.739,37.967z    M34.062,44.704c-1.632,0.819-2.691,0.812-4.345-0.031c-0.597-0.591-0.605-1.538,0.062-2.182c0.744-0.719,1.933-1.87,2.142-2.072   c0.205,0.204,1.378,1.373,2.112,2.103C34.689,43.176,34.668,44.122,34.062,44.704z M51.026,38.364   c-2.94,2.874-7.816,2.749-10.89-0.279c-3.074-3.028-3.182-7.813-0.242-10.687c2.94-2.874,7.816-2.749,10.89,0.279   C53.859,30.705,53.967,35.49,51.026,38.364z"/>
  </g>
</svg>
