<svg xmlns="http://www.w3.org/2000/svg" xmlns:xlink="http://www.w3.org/1999/xlink" version="1.1" viewBox="0 0 64 64">
  <g id="social-vkontakte" class="svg-hide">
    <path d="M5.789,20.19c-0.761-2.002,1.802-1.842,1.802-1.842c1.121,0,7.206,0,7.206,0   c1.681,0,1.962,1.321,1.962,1.321c4.244,9.088,6.686,11.29,6.686,11.29c3.003,2.522,2.949-3.083,2.963-3.603   c0.093-3.496-0.133-5.872-0.681-6.926c-0.547-1.054-2.322-1.241-2.322-1.241c-0.52,0-0.04-0.681-0.04-0.681   c1.161-1.641,4.391-1.481,6.165-1.521c5.271,0.013,5.725,0.56,6.005,0.681c1.321,0.974,1.014,2.015,1.028,2.776   c0.013,0.761-0.667,10.236,0.974,11.036c1.641,0.801,5.405-6.005,5.405-6.005c2.843-5.485,2.923-6.125,2.923-6.125   c0.44-1.121,1.361-0.921,1.361-0.921c8.688-0.12,5.568-0.16,8.209-0.16s2.4,0.24,2.681,0.601c0.601,1.161-0.52,3.043-0.52,3.043   c-3.603,5.805-6.846,9.769-6.846,9.769c-1.722,2.442-0.881,3.163-0.44,3.683c6.446,6.286,7.206,7.807,7.206,7.807   c1.001,1.481,0.826,2.122,0.826,2.122c-0.265,1.561-2.587,1.601-2.587,1.601c-6.366,0.12-7.607,0.12-7.607,0.12   c-2.322,0-4.484-2.522-4.484-2.522c-3.083-3.163-3.003-3.883-4.364-4.364c-2.202-0.841-2.722,3.123-2.722,3.123   c-0.12,1.361-0.06,0.821-0.12,2.042c-0.06,1.221-1.371,1.491-1.922,1.561c-0.55,0.07-3.783,0.08-6.035-0.15   c-6.976-1.211-12.021-7.897-12.021-7.897C10.073,30.599,5.789,20.19,5.789,20.19z"/>
  </g>
</svg>
