<svg xmlns="http://www.w3.org/2000/svg" xmlns:xlink="http://www.w3.org/1999/xlink" version="1.1" viewBox="0 0 64 64">
  <g id="social-tencentqq" class="svg-hide">
    <path d="M19.562,29.004c2.781,1.853,5.863,2.749,7.819,2.97c4.976,0.561,11.34,0.811,16.429-2.257    c4.039-2.436,5.983-4.801,6.992-7.367C50.693,12.031,42.527,3.701,32.468,3.701c-9.947,0-18.043,8.145-18.328,18.303    C15.118,25.428,17.577,27.681,19.562,29.004z M36.991,11.821c1.992,0,3.608,2.336,3.608,5.218s-1.615,5.218-3.608,5.218    c-1.992,0-3.608-2.336-3.608-5.218S34.999,11.821,36.991,11.821z M27.344,11.821c1.992,0,3.608,2.336,3.608,5.218    s-1.615,5.218-3.608,5.218c-1.992,0-3.608-2.336-3.608-5.218S25.352,11.821,27.344,11.821z M20.556,26.584    c0.188-0.209,1.253-0.992,1.253-0.992c3.142-1.952,6.358-2.537,10.471-2.746c5.283-0.084,8.895,1.394,10.273,2.02    c1.378,0.626,2.13,1.3,2.302,1.582c0.172,0.282,0.157,0.423-0.047,0.658c-1.159,1.284-2.506,1.691-2.881,1.832    c-0.376,0.141-0.83,0.157-0.992,0.172c-0.162,0.016-0.198,0.037,0.026-0.219c0.224-0.256,1.19-1.524,1.362-1.869    c0.146-0.376,0.031-0.282-0.219-0.052c-0.251,0.23-1.221,1.159-3.132,2.161c-1.911,1.002-3.33,1.514-6.473,1.629    c-3.581-0.042-5.659-1.409-6.87-2.172c-1.211-0.762-2.025-1.483-2.109-1.576c-0.084-0.094-0.167-0.073-0.073,0.094    s1.002,1.827,1.086,1.952s0.104,0.146-0.094,0.136s-0.282-0.042-0.72-0.157s-1.735-0.58-2.38-1.148    c-0.438-0.386-0.574-0.574-0.71-0.762C20.494,26.939,20.368,26.793,20.556,26.584z"/>
    <path d="M28.522,19.213c0.83,0,1.503-0.954,1.503-2.13s-0.673-2.13-1.503-2.13s-1.503,0.954-1.503,2.13    S27.692,19.213,28.522,19.213z M28.898,16.186c0.323,0,0.585,0.337,0.585,0.752s-0.262,0.752-0.585,0.752    s-0.585-0.337-0.585-0.752C28.313,16.522,28.575,16.186,28.898,16.186z"/>
    <path d="M35.486,17.783c0.08-0.465,0.125-0.762,0.23-1.002c0.104-0.24,0.365-0.512,0.762-0.512c0.856,0,0.762,1.096,0.762,1.19    c-0.031,1.065,0.376,1.086,0.376,1.086c0.149,0.004,0.3-0.023,0.37-0.18c0.069-0.157,0.12-0.549,0.12-0.85    c0-1.265-0.748-2.29-1.67-2.29c-0.922,0-1.67,1.025-1.67,2.29c0,0.233,0.005,0.551,0.073,0.669s0.206,0.121,0.271,0.121    C35.204,18.305,35.406,18.248,35.486,17.783z"/>
    <path d="M57.128,38.131c-0.418-1.42-1.148-3.341-2.13-4.907c-0.825-1.317-2.167-3.12-2.573-3.661    c0.019-0.036,0.038-0.071,0.057-0.108c0.689-1.503,0.251-3.821-0.188-4.886c-0.238-0.578-0.559-1.078-0.847-1.467    c-1.109,2.561-3.157,4.937-7.184,7.365c-3.521,2.123-7.585,2.73-11.413,2.73c-1.951,0-3.84-0.157-5.566-0.352    c-4.314-0.486-11.331-3.517-13.665-9.638c-0.926,0.871-0.881,1.561-0.881,2.599c-1.425,1.409-0.517,3.993-0.392,4.307    c0.004,0.009,0.009,0.017,0.013,0.026l-0.018-0.005C8.28,34.467,7.685,37.212,6.975,39.3s-0.438,4.656-0.23,5.888    c0.209,1.232,0.564,2.297,1.065,2.297s0.981,0.209,2.61-1.712s1.378-2.067,1.524-2.276s0.23,0.251,0.292,0.438    c0.063,0.188,0.71,2.276,2.005,4.134c0.512,0.735,1.061,1.47,1.683,2.19c-1.129,0.398-2.013,0.749-3.03,1.864    c-1.049,1.151-0.595,1.48-0.548,1.527s0.102,0.094-0.031,0.219s-0.564,0.626-0.493,1.887c0.07,1.261,1.268,2.96,4.737,3.915    s9.936,1.284,14.071-2.482c0.002-0.002,0.002-0.004,0.004-0.006c1.074,0.088,2.129,0.089,3.16,0.013    c4.135,3.758,10.596,3.429,14.062,2.475c3.469-0.955,4.667-2.654,4.737-3.915s-0.36-1.762-0.493-1.887s-0.078-0.172-0.031-0.219    s0.501-0.376-0.548-1.527s-1.958-1.488-3.14-1.903l-0.249-0.073c1.953-2.247,3.398-4.834,3.862-6.921    c0.063-0.355,0.125-0.23,0.209-0.063s0.752,1.65,1.691,2.735c0.94,1.086,1.357,1.524,2.213,1.545    c0.856,0.021,1.503-2.986,1.566-4.844C57.734,40.741,57.546,39.551,57.128,38.131z M43.472,52.392    c-4.615,3.884-11.944,5.387-18.751,2.255s-9.501-9.605-9.501-14.345c0.172-3.573,0.973-5.396,1.108-5.681    c0.82,0.595,1.708,1.134,2.639,1.619c-0.571,2.552-0.904,4.535-0.844,7.026c0.063,2.584,2.005,3.179,3.461,3.602    s3.273,0.078,4.04-0.157c0.767-0.235,0.846-0.783,1.002-2.49c0.093-1.01,0.054-2.446,0-3.785c1.835,0.634,3.799,0.978,5.841,0.978    c4.446,0,8.522-1.628,11.696-4.335c1.436-0.676,2.829-1.509,4.099-2.526l0.011,0.047C51.073,42.244,48.087,48.508,43.472,52.392z"/>
  </g>
</svg>
