<svg xmlns="http://www.w3.org/2000/svg" xmlns:xlink="http://www.w3.org/1999/xlink" version="1.1" viewBox="0 0 64 64">
  <g id="social-youku" class="svg-hide">
    <path d="M32.824,18.186c0.089-0.167,0.167-0.341,0.232-0.522l0.031-0.07l-0.006-0.003c0.136-0.402,0.211-0.833,0.211-1.282    c0-2.205-1.788-3.993-3.993-3.993c-1.497,0-2.801,0.824-3.484,2.044l-0.013-0.006l-0.085,0.191    c-0.045,0.091-0.086,0.184-0.124,0.279l-5.621,12.641l-7.53-12.658c-0.153-0.376-0.36-0.724-0.614-1.032l-0.017-0.029    l-0.005,0.003c-0.732-0.875-1.832-1.432-3.063-1.432c-2.205,0-3.993,1.788-3.993,3.993c0,0.519,0.1,1.015,0.281,1.47l-0.013,0.008    l0.05,0.083c0.14,0.329,0.324,0.635,0.543,0.912l10.429,17.53l-4.251,9.561c-0.067,0.131-0.127,0.265-0.179,0.404l-0.131,0.295    l0.029,0.013c-0.101,0.351-0.156,0.721-0.156,1.105c0,2.205,1.788,3.993,3.993,3.993c1.431,0,2.685-0.753,3.39-1.884l0.029,0.013    l0.133-0.299c0.069-0.135,0.132-0.274,0.186-0.418L32.824,18.186z"/>
    <path d="M58.036,34.265l-6.891-6.891l6.015-6.015c0.836-0.732,1.364-1.806,1.364-3.004c0-2.205-1.788-3.993-3.993-3.993    c-1.037,0-1.982,0.396-2.692,1.044l-0.004-0.004L42.6,24.639v-6.594h-0.004c-0.056-2.089-1.767-3.766-3.87-3.766    c-2.139,0-3.873,1.734-3.873,3.873c0,0.086,0.004,0.17,0.009,0.254v19.331c-0.005,0.084-0.009,0.169-0.009,0.254    c0,2.139,1.734,3.873,3.873,3.873c2.075,0,3.769-1.632,3.868-3.683H42.6v-8.057l9.83,9.83l0.002-0.002    c0.723,0.724,1.722,1.172,2.826,1.172c2.205,0,3.993-1.788,3.993-3.993C59.25,36.006,58.784,34.991,58.036,34.265z"/>
  </g>
</svg>
