<svg xmlns="http://www.w3.org/2000/svg" xmlns:xlink="http://www.w3.org/1999/xlink" version="1.1" viewBox="0 0 64 64">
  <g id="social-wechat" class="svg-hide">
    <path d="M24.286,7.041c-12.117,0-21.94,8.586-21.94,19.177c0,5.775,2.921,10.954,7.542,14.469c-0.467,1.296-2,5.554-2.099,5.852    c-0.117,0.352,0.14,0.837,0.782,0.614c0.627-0.218,2.214-1.236,6.084-3.701c2.908,1.244,6.176,1.943,9.631,1.943    c0.378,0,0.753-0.008,1.126-0.025c-0.695-1.775-1.057-3.661-1.057-5.597c0-4.595,2.035-8.905,5.73-12.135    c3.643-3.184,8.474-4.938,13.605-4.938c0.738,0,1.469,0.037,2.191,0.109C44.041,13.844,35.073,7.041,24.286,7.041z M16.378,21.718    c-1.605,0-2.906-1.301-2.906-2.906s1.301-2.906,2.906-2.906s2.906,1.301,2.906,2.906S17.983,21.718,16.378,21.718z M32.278,21.718    c-1.605,0-2.906-1.301-2.906-2.906s1.301-2.906,2.906-2.906s2.906,1.301,2.906,2.906S33.883,21.718,32.278,21.718z"/>
    <path d="M61.653,39.773c0-8.671-8.043-15.701-17.964-15.701s-17.964,7.03-17.964,15.701s8.043,15.701,17.964,15.701    c2.829,0,5.505-0.572,7.886-1.591c3.169,2.019,4.468,2.852,4.981,3.031c0.526,0.183,0.736-0.215,0.64-0.503    c-0.081-0.244-1.336-3.73-1.718-4.791C59.262,48.741,61.653,44.501,61.653,39.773z M37.146,36.088    c-1.314,0-2.379-1.065-2.379-2.379c0-1.314,1.065-2.379,2.379-2.379c1.314,0,2.379,1.065,2.379,2.379S38.46,36.088,37.146,36.088z     M50.164,36.088c-1.314,0-2.379-1.065-2.379-2.379c0-1.314,1.065-2.379,2.379-2.379s2.379,1.065,2.379,2.379    C52.544,35.023,51.478,36.088,50.164,36.088z"/>
  </g>
</svg>
