<svg xmlns="http://www.w3.org/2000/svg" xmlns:xlink="http://www.w3.org/1999/xlink" version="1.1" viewBox="0 0 64 64">
  <g id="social-weibo" class="svg-hide">
    <path d="M52.224,32.638c-1.941-1.747-3.144-1.941-4.503-2.523c-1.359-0.582-1.63-0.699-1.048-2.096    c2.019-4.813-1.592-6.483-1.592-6.483c-4.464-1.553-8.907,0.33-9.705,0.66c-2.057,0.815-0.97,0.427-2.057,0.815    c-1.087,0.388-1.009-0.621-0.776-1.359c1.203-5.085-0.699-6.211-0.699-6.211c-1.63-1.165-2.64-1.203-2.64-1.203    c-7.181-0.272-14.673,7.143-14.673,7.143C3.119,32.094,4.594,38.771,4.633,40.208c0.97,7.88,10.83,11.219,10.83,11.219    c20.419,7.686,33.811-4.425,33.811-4.425C58.785,38.538,52.224,32.638,52.224,32.638z M37.24,48.204    c-10.481,4.697-18.7,2.135-22.825-0.738c-4.125-2.873-4.115-6.444-4.115-6.444c0-11.296,15.411-12.888,15.411-12.888    c14.363-1.436,18.167,6.677,18.167,6.677C47.76,43.041,37.24,48.204,37.24,48.204z"/>
    <path d="M34.407,36.326c0,0-3.882-5.56-10.559-3.3c-3.571,1.079-9.666,6.357-4.891,12.694c0,0,4.202,4.922,11.568,1.359    C30.525,47.078,37.9,43.197,34.407,36.326z M26.436,42.601c-1.255,3.131-4.361,2.174-4.361,2.174    c-2.083-0.582-1.785-2.239-1.799-2.627c0.414-2.886,3.351-3.015,3.52-3.015C27.406,39.383,26.527,42.226,26.436,42.601z     M28.907,39.612c-0.582,0.569-1.048,0.427-1.048,0.427c-1.061-0.129-0.983-1.035-0.983-1.035c0.091-0.919,0.983-1.139,0.983-1.139    c0.893-0.336,1.307,0.44,1.307,0.44C29.632,38.978,28.907,39.612,28.907,39.612z"/>
    <path d="    M44.738,17.486c8.301-0.932,7.318,6.78,7.318,6.78"/>
    <path d="    M42.895,10.136c17.908-1.501,16.895,11.956,16.304,17.08"/>
  </g>
</svg>
