<svg xmlns="http://www.w3.org/2000/svg" xmlns:xlink="http://www.w3.org/1999/xlink" version="1.1" viewBox="0 0 64 64">
  <g id="social-twitter" class="svg-hide">
    <path d="M62.937,13.008c-2.27,1.003-4.709,1.68-7.27,1.985c2.614-1.56,4.621-4.031,5.566-6.974   c-2.446,1.445-5.154,2.494-8.037,3.059c-2.309-2.449-5.599-3.98-9.239-3.98c-6.991,0-12.658,5.644-12.658,12.604   c0,0.988,0.112,1.95,0.328,2.873c-10.519-0.526-19.845-5.544-26.088-13.17c-1.089,1.862-1.713,4.027-1.713,6.337   c0,4.373,2.234,8.231,5.631,10.491c-2.075-0.065-4.027-0.632-5.733-1.577c-0.001,0.053-0.001,0.106-0.001,0.159   c0,6.107,4.363,11.202,10.153,12.359c-1.062,0.288-2.18,0.442-3.335,0.442c-0.816,0-1.608-0.079-2.381-0.226   c1.611,5.008,6.285,8.652,11.823,8.754c-4.332,3.38-9.789,5.396-15.719,5.396c-1.022,0-2.029-0.06-3.019-0.176   c5.601,3.577,12.254,5.664,19.402,5.664c23.281,0,36.012-19.207,36.012-35.864c0-0.546-0.012-1.09-0.036-1.631   C59.095,17.756,61.241,15.536,62.937,13.008z"/>
  </g>
</svg>
