<svg xmlns="http://www.w3.org/2000/svg" xmlns:xlink="http://www.w3.org/1999/xlink" version="1.1" viewBox="0 0 64 64">
  <g id="social-reddit" class="svg-hide">
    <path d="M62.254,31.33c0-3.713-3.035-6.729-6.767-6.729c-1.777,0-3.376,0.67-4.593,1.783   c-4.429-3.057-10.402-5.067-17.073-5.443l2.993-9.813l9.172,1.81c0.314,3.043,2.898,5.416,6.056,5.416c0.014,0,0.014,0,0.027,0   c0.014,0,0.014,0,0.027,0c3.363,0,6.083-2.708,6.083-6.046s-2.734-6.046-6.097-6.046c-0.014,0-0.014,0-0.027,0h-0.014   c-2.351,0-4.374,1.314-5.399,3.257l-12.26-2.413l-4.21,13.808l-0.342,0.013c-6.876,0.295-13.055,2.332-17.593,5.456   C11.034,25.27,9.421,24.6,7.644,24.6c-3.732,0-6.767,3.016-6.767,6.729c0,2.628,1.504,4.893,3.704,6.006   c-0.109,0.657-0.164,1.314-0.164,1.984C4.431,49.48,16.583,57.738,31.564,57.738c14.982,0,27.134-8.258,27.134-18.433   c0-0.67-0.055-1.327-0.15-1.984C60.75,36.209,62.254,33.944,62.254,31.33z M5.566,34.024c-0.902-0.603-1.49-1.622-1.49-2.788   c0-1.85,1.517-3.365,3.376-3.365c0.766,0,1.476,0.255,2.051,0.684C7.658,30.15,6.291,32,5.566,34.024z M49.787,12.307   c0-1.233,1.012-2.252,2.255-2.252c1.244,0,2.255,1.006,2.255,2.252c0,1.233-1.011,2.252-2.255,2.252   C50.799,14.56,49.787,13.554,49.787,12.307z M18.238,36.343c0-2.359,1.941-4.263,4.347-4.263s4.347,1.903,4.347,4.263   s-1.941,4.263-4.347,4.263S18.238,38.703,18.238,36.343z M31.566,51.303c-6.507-0.026-10.389-3.82-10.553-3.981l1.722-1.662   c0.027,0.027,3.24,3.244,8.83,3.271c5.509-0.027,8.776-3.244,8.817-3.271l1.722,1.662C41.941,47.483,38.072,51.277,31.566,51.303z    M40.629,40.606c-2.406,0-4.347-1.904-4.347-4.263s1.941-4.263,4.347-4.263c2.406,0,4.347,1.903,4.347,4.263   S43.021,40.606,40.629,40.606z M57.593,34.078c-0.738-2.051-2.133-3.941-4.005-5.55c0.574-0.442,1.299-0.697,2.078-0.697   c1.9,0,3.431,1.528,3.431,3.418C59.11,32.429,58.508,33.461,57.593,34.078z"/>
  </g>
</svg>
