<svg xmlns="http://www.w3.org/2000/svg" xmlns:xlink="http://www.w3.org/1999/xlink" version="1.1" viewBox="0 0 64 64">
  <g id="social-youtube" class="svg-hide">
    <path d="M62.155,19.487c0,0-0.602-4.309-2.448-6.206c-2.341-2.49-4.966-2.503-6.169-2.648C44.922,10,31.998,10,31.998,10h-0.026     c0,0-12.924,0-21.54,0.633c-1.204,0.146-3.827,0.158-6.169,2.648c-1.846,1.898-2.447,6.206-2.447,6.206S1.2,24.547,1.2,29.607     v4.743c0,5.06,0.616,10.12,0.616,10.12s0.601,4.309,2.447,6.207c2.342,2.49,5.419,2.412,6.789,2.673     c4.926,0.48,20.934,0.628,20.934,0.628s12.937-0.02,21.553-0.652c1.203-0.146,3.828-0.158,6.169-2.648     c1.846-1.898,2.448-6.207,2.448-6.207s0.615-5.06,0.615-10.12v-4.743C62.77,24.547,62.155,19.487,62.155,19.487z M25.628,40.099     l-0.003-17.568l16.636,8.815L25.628,40.099z"/>
  </g>
</svg>
