<svg xmlns="http://www.w3.org/2000/svg" xmlns:xlink="http://www.w3.org/1999/xlink" version="1.1" viewBox="0 0 64 64">
  <g id="tag" class="svg-hide">
    <path d="M13.908,5.964c0,6.184,0,14.342,0,22.583c3.407,0,10.22,0,10.22,0l3.183-10.304l3.081,10.304   h10.337c0,0-0.112,0.131-0.17,0.18c-2.595,2.178-8.113,6.471-8.113,6.471l3.218,10.448c0,0-0.193-0.073-0.24-0.108   c-2.708-1.978-8.112-6.29-8.112-6.29l-8.352,6.507l3.253-10.519c0,0-0.679-0.597-1.027-0.869c-2.087-1.623-4.253-3.337-6.366-4.99   c-0.316-0.247-0.91-0.755-0.91-0.755V64l14.74-12.741L42.05,64c0,0,0-37.748,0-56.619c0.884-4.258,7.722-2.224,8.042-7.077   C37.677,1.816,18.412-3.905,13.908,5.964z"/>
  </g>
</svg>
