<svg xmlns="http://www.w3.org/2000/svg" xmlns:xlink="http://www.w3.org/1999/xlink" version="1.1" viewBox="0 0 64 64">
  <g id="trade" class="svg-hide">
    <circle cx="45.079" cy="10.367" r="9.344"/>
    <path d="M53.006,20.599H34.678c-0.901,0-1.761,0.155-2.568,0.422c0.401,1.308,0.62,2.696,0.62,4.135    c0,3.216-1.086,6.174-2.902,8.544c5.679,0.34,10.194,4.925,10.194,10.527v2.01c-0.787,0.69-1.712,1.191-2.812,1.478v-3.489    c0-4.321-3.605-7.825-8.053-7.825h-18.33c-4.448,0-8.053,3.504-8.053,7.825v3.813c5.888,1.716,10.352,5.083,10.352,14.897h13.731    c0-2.505,0.292-4.588,0.823-6.333c2.421,0.824,4.868,1.252,7.279,1.256c0.028,0,0.055,0,0.083,0c0.54,0,1.079-0.026,1.613-0.072    c0.208,1.234,0.321,2.607,0.321,4.147h13.731c0-9.814,4.463-13.04,10.352-14.756V28.424    C61.059,24.102,57.454,20.599,53.006,20.599z M50.099,34.875c0.054,0.154,0.096,0.315,0.12,0.482    c0.18,1.251,0.27,2.464,0.27,3.633c0.008,4.918-1.605,9.108-4.446,12.033c-2.82,2.922-6.792,4.489-11.037,4.489    c-0.015,0-0.031,0-0.046,0c-4.938-0.003-10.233-2.021-15.09-6.088l-4.802,4.666L13.86,39.326L29.056,40.5l-5.413,5.259    c3.974,3.231,7.982,4.594,11.317,4.591c2.972-0.011,5.417-1.023,7.214-2.866c1.786-1.85,2.992-4.63,3-8.493    c0-0.914-0.07-1.888-0.217-2.916c-0.026-0.182-0.032-0.361-0.019-0.537L38,36.429l8.287-12.432l11.325,9.915L50.099,34.875z"/>
    <circle cx="18.931" cy="24.932" r="9.344"/>
  </g>
</svg>
