<svg xmlns="http://www.w3.org/2000/svg" xmlns:xlink="http://www.w3.org/1999/xlink" version="1.1" viewBox="0 0 64 64">
  <g id="training" class="svg-hide">
    <path d="M62.867,29.502L31.265,14.877L1.133,30.233l4.909,2.929c0,0-1.699,10.505-2.703,16.815c1.96,0,3.919,0,5.879,0     c-1.225-6.089-2.152-16.258-2.152-16.258l5.827,2.364c0,0-0.105-3.823,0.735-5.119c10.586-5.462,26.969-4.346,37.481,0     c0.783,1.463,0.735,4.388,0.735,4.388L62.867,29.502z M15.097,33.159c0,3.412,0,6.824,0,10.237     c10.484-2.641,23.323-2.64,33.807,0c0-3.169,0-6.337,0-9.506C39.721,29.446,25.108,29.624,15.097,33.159z"/>
  </g>
</svg>
