<svg xmlns="http://www.w3.org/2000/svg" xmlns:xlink="http://www.w3.org/1999/xlink" version="1.1" viewBox="0 0 64 64">
  <g id="treasuremap" class="svg-hide">
    <path d="M57.195,20.592c0.508-1.159,1.338-2.036,1.908-3.153c1.01-1.976,2.595-4.407,2.642-6.7   c0.058-2.828-0.196-8.364-0.196-8.364s-1.565-0.157-2.298-0.093c-0.105,0.009-1.373,0.294-1.373,0.294s-0.714,1.545-1.269,2.199   c-0.42,0.494-0.866,0.977-1.253,1.496c-0.053-0.319-0.33-3.891-0.33-3.891C43.695,3.322,32.307,2.086,21.001,2.1   c-1.829,0.002-5.472,0.918-5.472,0.918s-3.132,4.158-2.438,4.488c-1.9-0.904-4.214-4.293-4.214-4.293s-5.304-0.145-7.45-0.07   c1.417,2.088,1.024,6.013,1.17,8.471c0.183,3.099,0.418,6.246,0.248,9.351c-0.283,5.166-0.457,10.338-0.524,15.511   c-0.037,2.862-0.142,5.725-0.086,8.588c0.028,1.403,0.205,6.813,0.205,6.813l2.202-1.224c0,0-0.547,1.434-0.89,2.124   c-0.645,1.297-1.392,8.846-1.392,8.846l8.771-0.26l1.44-1.67l0.358,1.191c0,0,8.72,0.671,12.859-0.018   c5.02-0.847,10.135-0.897,15.207-0.608c2.555,0.145,5.105,0.375,7.651,0.631c0.613,0.062,1.225,0.125,1.838,0.188   c0.43,0.045,1.656,0.154,1.656,0.154l1.397-4.711c0,0,0.524,1.823,0.915,2.686c0.381,0.842,1.34,2.122,1.34,2.122l5.474,0.787   c0,0,0.016-7.861-0.11-9.46c-0.265-3.359-0.269-6.739-0.012-10.099c0.218-2.841,0.065-5.596,0.123-8.456   c0.069-3.385,0.138-6.769,0.207-10.154c0.026-1.299,0.014-3.283,0.014-3.283c-0.789,0.644-5.755,4.847-5.475,5.866   c-0.216-0.628-0.088-1.316,0.047-1.966C56.338,23.22,56.639,21.858,57.195,20.592z M11.583,31.5c0-1.496,1.213-2.708,2.708-2.708   c1.496,0,2.708,1.213,2.708,2.708c0,1.495-1.213,2.708-2.708,2.708S11.583,32.996,11.583,31.5z M16.167,44.875   c-1.496,0-2.708-1.213-2.708-2.708c0-1.496,1.213-2.708,2.708-2.708c1.496,0,2.708,1.213,2.708,2.708S17.662,44.875,16.167,44.875z    M18.875,25.375c-1.496,0-2.708-1.213-2.708-2.708c0-1.496,1.213-2.708,2.708-2.708s2.708,1.213,2.708,2.708   S20.371,25.375,18.875,25.375z M23.583,51.708c-1.496,0-2.708-1.213-2.708-2.708s1.213-2.708,2.708-2.708   c1.496,0,2.708,1.213,2.708,2.708S25.079,51.708,23.583,51.708z M28.125,21.958c-1.496,0-2.708-1.213-2.708-2.708   s1.213-2.708,2.708-2.708s2.708,1.213,2.708,2.708S29.621,21.958,28.125,21.958z M51.834,31.33l-2.587,2.587l-5.955-5.955   l-5.955,5.955L34.75,31.33l5.954-5.955L34.75,19.42l2.587-2.587l5.955,5.955l5.955-5.955l2.587,2.587l-5.955,5.955L51.834,31.33z"/>
  </g>
</svg>
