<svg xmlns="http://www.w3.org/2000/svg" xmlns:xlink="http://www.w3.org/1999/xlink" version="1.1" viewBox="0 0 64 64">
  <g id="vendor" class="svg-hide">
    <path d="M27.402,46.453c-2.539,0-4.597,2.049-4.597,4.578c0,2.528,2.058,4.578,4.597,4.578s4.597-2.049,4.597-4.578     C32,48.502,29.941,46.453,27.402,46.453z M48.584,46.453c-2.529,0-4.58,2.049-4.58,4.578c0,2.528,2.05,4.578,4.58,4.578     c2.529,0,4.579-2.049,4.579-4.578C53.164,48.502,51.114,46.453,48.584,46.453z M50.968,38.81H24.553L15.89,18.301l-2.22-5.07     l-0.035,0.015v-0.015H1.042l0.004,4.004h10.311l10.31,25.479l4.692-0.019h27.793l5.321-17.44H54.89L50.968,38.81z M62.48,9.482     l-1.357-1.09l-0.31,1.044l-0.807,0.383l-3.394,1.826L52.4,14.729l-1.407-2.117l-1.603-0.696l-0.547-0.173l-0.608,0.545     l-0.057,0.869l1.286,0.592l1.072,1.314l-1.38,0.651l-0.051,0.543l-0.573-0.022l-0.734-0.365l-1.203,0.827l-2.712,1.663     l-5.186,3.568l-10.101,6.767l-1.394,0.895l-0.348,1.508l-0.32,1.552l1.502,0.319l1.499,0.261l1.35-0.806l10.149-6.24l5.26-3.201     l3.835-2.478l0.508-0.27l-0.051-0.747l0.234-0.596l0.519,0.176l1.199-0.975l0.729,1.503l0.036,1.394l0.82,0.305l0.751-0.328     l0.055-1.206l-0.019-1.128l-0.657-1.058l-0.67-1.079l4.582-2.57l3.06-2.288l0.707-0.59l1.006,0.132L62.48,9.482z"/>
  </g>
</svg>
