<svg xmlns="http://www.w3.org/2000/svg" xmlns:xlink="http://www.w3.org/1999/xlink" version="1.1" viewBox="0 0 64 64">
  <g id="wow-add" class="svg-hide">
    <path d="M48.767,41.627c-2.88,5.825-8.28,10.171-14.782,11.577l-4.582-2.543l-4.576,2.54     c-8.262-1.793-14.764-8.326-16.538-16.624l2.527-4.582L8.294,27.42c1.782-8.297,8.291-14.827,16.559-16.612l4.561,2.531     l4.561-2.531c6.504,1.403,11.907,5.749,14.79,11.575c0.246-0.614,0.843-1.048,1.543-1.048h3.403     C50.029,12.905,42.123,6.76,32.676,5.596l-2.987-2.997c-0.073-0.074-0.174-0.114-0.276-0.111     c-0.097-0.003-0.199,0.04-0.272,0.114l-2.983,2.994C14.12,7.074,4.581,16.644,3.099,28.723l-2.985,2.996     C0.04,31.793,0,31.895,0,31.995c-0.003,0.099,0.043,0.202,0.113,0.275l2.982,2.992C4.565,47.356,14.11,56.94,26.158,58.421     l2.971,2.982c0.071,0.071,0.172,0.114,0.274,0.112c0.097,0.002,0.199-0.041,0.274-0.114l2.966-2.976     c9.466-1.154,17.389-7.311,21.071-15.757h-3.408C49.611,42.666,49.016,42.236,48.767,41.627z M43.301,20.048h-8.513     c0,0,0.91,0.842,0.91,1.782c0,0.937-2.342,14.748-2.342,14.748l-3.943-15.74l-3.829,16.065c0,0-2.364-10.245-2.713-13.995     c-0.09-0.945,0.276-2.859,0.276-2.859h-8.1c0,0,1.414,0.849,1.952,3.197c0.284,1.246,4.538,17.547,4.718,20.685     c0.059,1.089-1.522,2.247-1.522,2.247h8.301c0,0-0.515-0.904-0.515-2.156c0-1.26,1.557-8.182,1.557-8.182     s1.288,6.687,1.288,8.091c0,1.405-0.265,2.247-0.265,2.247h7.949c0,0-0.983-1.243-0.983-2.751c0-0.973,2.609-16.311,3.366-19.357     C41.482,21.697,43.301,20.048,43.301,20.048z M54.528,29.729v-5.141h-4.527v5.141h-5.122v4.543h5.122v5.14h4.527v-5.14h5.122     v-4.543H54.528z"/>
  </g>
</svg>
