<svg xmlns="http://www.w3.org/2000/svg" xmlns:xlink="http://www.w3.org/1999/xlink" version="1.1" viewBox="0 0 64 64">
  <g id="wow-alt" class="svg-hide">
    <path d="M63.876,31.708l-3.232-3.232c-1.6-13.108-11.982-23.497-25.089-25.105l-3.25-3.25c-0.08-0.08-0.19-0.124-0.301-0.121     c-0.105-0.003-0.216,0.043-0.296,0.123l-3.246,3.246C15.365,4.973,4.984,15.349,3.372,28.446l-3.249,3.249     C0.044,31.775,0,31.885,0,31.993c-0.003,0.108,0.046,0.219,0.123,0.298l3.245,3.244c1.6,13.113,11.986,23.505,25.095,25.109     l3.233,3.234c0.077,0.077,0.188,0.123,0.298,0.121c0.105,0.003,0.217-0.044,0.299-0.124l3.227-3.227     c13.123-1.595,23.523-11.99,25.124-25.112l3.232-3.233c0.082-0.08,0.126-0.191,0.124-0.298     C64.002,31.899,63.956,31.788,63.876,31.708z M36.981,54.99l-4.986-2.757l-4.979,2.754c-8.99-1.945-16.065-9.027-17.995-18.024     l2.75-4.969l-2.745-4.96c1.939-8.996,9.022-16.076,18.018-18.011l4.963,2.744l4.963-2.744     c8.996,1.934,16.077,9.011,18.018,18.004l-2.755,4.98l2.756,4.981C53.048,45.977,45.972,53.053,36.981,54.99z M38.844,20.973     c0,1.016-2.548,15.99-2.548,15.99l-4.29-17.065l-4.167,17.418c0,0-2.572-11.108-2.952-15.175     c-0.098-1.024,0.301-3.099,0.301-3.099h-8.814c0,0,1.538,0.92,2.124,3.467c0.309,1.35,4.938,19.025,5.134,22.427     c0.064,1.181-1.656,2.436-1.656,2.436h9.032c0,0-0.56-0.98-0.56-2.338c0-1.366,1.695-8.871,1.695-8.871s1.402,7.25,1.402,8.773     c0,1.524-0.288,2.436-0.288,2.436h8.649c0,0-1.07-1.348-1.07-2.984c0-1.054,2.839-17.685,3.663-20.988     c0.64-2.571,2.62-4.359,2.62-4.359h-9.264C37.854,19.041,38.844,19.954,38.844,20.973z"/>
  </g>
</svg>
