<svg xmlns="http://www.w3.org/2000/svg" xmlns:xlink="http://www.w3.org/1999/xlink" version="1.1" viewBox="0 0 64 64">
  <g id="wow-search" class="svg-hide">
    <path d="M47.999,42.612c-2.968,5.328-8.096,9.266-14.195,10.591l-4.558-2.543l-4.552,2.54     c-8.218-1.793-14.686-8.326-16.45-16.624l2.513-4.582L8.25,27.42c1.772-8.297,8.247-14.827,16.47-16.611l4.536,2.531l4.537-2.531     c6.114,1.326,11.256,5.277,14.223,10.624c1.236-0.472,2.57-0.742,3.969-0.742c0.396,0,0.787,0.022,1.173,0.062     c-3.765-8.129-11.477-14.02-20.656-15.157l-2.971-2.997c-0.073-0.074-0.174-0.114-0.275-0.111     c-0.096-0.003-0.198,0.04-0.271,0.114l-2.967,2.994C14.045,7.075,4.556,16.644,3.082,28.723l-2.97,2.996     C0.04,31.793,0,31.895,0,31.995c-0.003,0.099,0.042,0.202,0.113,0.275l2.966,2.992c1.462,12.094,10.957,21.678,22.94,23.159     l2.955,2.982c0.071,0.071,0.172,0.114,0.273,0.112c0.096,0.003,0.198-0.04,0.273-0.114l2.95-2.977     c9.178-1.125,16.893-7.004,20.67-15.122c-0.379,0.039-0.764,0.06-1.154,0.06C50.579,43.361,49.24,43.088,47.999,42.612z      M43.07,20.048h-8.468c0,0,0.905,0.842,0.905,1.782c0,0.937-2.329,14.748-2.329,14.748l-3.922-15.74l-3.809,16.065     c0,0-2.351-10.245-2.699-13.996c-0.089-0.945,0.275-2.859,0.275-2.859h-8.057c0,0,1.406,0.849,1.942,3.198     c0.282,1.245,4.514,17.547,4.693,20.685c0.059,1.089-1.514,2.247-1.514,2.247h8.257c0,0-0.512-0.904-0.512-2.156     c0-1.26,1.549-8.181,1.549-8.181s1.281,6.687,1.281,8.091c0,1.405-0.263,2.247-0.263,2.247h7.906c0,0-0.978-1.243-0.978-2.752     c0-0.973,2.595-16.311,3.348-19.357C41.261,21.697,43.07,20.048,43.07,20.048z M63.61,40.88l-4.765-4.807     c1.812-3.11,1.326-7.12-1.231-9.7c-1.497-1.51-3.486-2.342-5.603-2.342c-2.116,0-4.106,0.831-5.602,2.341     c-1.497,1.51-2.321,3.518-2.321,5.653s0.824,4.143,2.321,5.653c1.496,1.51,3.485,2.341,5.601,2.341     c1.422,0,2.799-0.378,4.012-1.098l4.765,4.808l0.39,0.394l0.39-0.394l2.042-2.061L64,41.274L63.61,40.88z M55.106,35.148     c-0.827,0.834-1.926,1.293-3.095,1.293c-1.169,0-2.268-0.459-3.095-1.293c-1.706-1.722-1.706-4.523,0-6.245     c0.827-0.834,1.926-1.293,3.095-1.293c1.169,0,2.268,0.46,3.095,1.293C56.812,30.625,56.812,33.427,55.106,35.148z"/>
  </g>
</svg>
