<svg xmlns="http://www.w3.org/2000/svg" xmlns:xlink="http://www.w3.org/1999/xlink" version="1.1" viewBox="0 0 64 64">
  <g id="wow" class="svg-hide">
    <path d="M39.373,20.108c0,1.093-2.747,17.238-2.747,17.238l-4.627-18.399l-4.496,18.779c0,0-2.775-11.978-3.186-16.359     c-0.102-1.104,0.326-3.343,0.326-3.343h-9.508c0,0,1.658,0.993,2.289,3.737c0.334,1.457,5.327,20.512,5.539,24.181     c0.07,1.273-1.786,2.623-1.786,2.623h9.744c0,0-0.606-1.054-0.606-2.518c0-1.471,1.828-9.564,1.828-9.564     s1.514,7.817,1.514,9.459s-0.312,2.623-0.312,2.623h9.331c0,0-1.155-1.448-1.155-3.215c0-1.134,3.063-19.066,3.951-22.625     c0.691-2.771,2.829-4.7,2.829-4.7h-9.994C38.307,18.024,39.373,19.01,39.373,20.108z M57.379,14.206V7.087     c0-0.121-0.049-0.239-0.134-0.319c-0.08-0.084-0.2-0.134-0.322-0.134h-7.107c-5.187-3.658-11.357-5.638-17.834-5.638H31.98     c-6.47,0-12.633,1.976-17.811,5.627H7.07c-0.122,0-0.24,0.05-0.321,0.137C6.665,6.84,6.616,6.958,6.616,7.079v7.103     C-0.866,24.827-0.87,39.146,6.604,49.79l0.001,7.115c0,0.123,0.049,0.239,0.134,0.319c0.079,0.084,0.199,0.134,0.322,0.134h7.1     c5.186,3.659,11.355,5.638,17.831,5.638c6.467,0,12.629-1.974,17.813-5.624h7.109c0.122,0,0.239-0.05,0.321-0.134     c0.084-0.08,0.133-0.2,0.133-0.323v-7.099C64.855,39.179,64.858,24.855,57.379,14.206z M50.077,50.052     c-4.999,4.996-11.544,7.492-18.086,7.492c-6.543,0-13.082-2.493-18.074-7.483c-9.979-9.976-9.991-26.148,0.008-36.142     c4.985-4.982,11.52-7.471,18.055-7.473c6.545,0,13.089,2.498,18.083,7.489C60.045,23.908,60.053,40.08,50.077,50.052z"/>
  </g>
</svg>
